G75*
%MOIN*%
%OFA0B0*%
%FSLAX25Y25*%
%IPPOS*%
%LPD*%
%AMOC8*
5,1,8,0,0,1.08239X$1,22.5*
%
%ADD10C,0.00000*%
%ADD11OC8,0.05200*%
%ADD12C,0.05200*%
%ADD13C,0.05150*%
%ADD14C,0.11220*%
%ADD15C,0.07400*%
%ADD16C,0.05200*%
%ADD17C,0.05937*%
%ADD18C,0.03169*%
%ADD19C,0.01600*%
D10*
X0001800Y0002083D02*
X0001800Y0198934D01*
X0198650Y0198934D01*
X0198650Y0002083D01*
X0001800Y0002083D01*
D11*
X0034300Y0008333D03*
X0034300Y0048333D03*
X0015550Y0048333D03*
X0005550Y0048333D03*
X0078050Y0018333D03*
X0078050Y0007083D03*
X0080550Y0032083D03*
X0080550Y0042083D03*
X0118050Y0018333D03*
X0118050Y0007083D03*
X0151800Y0082083D03*
X0138050Y0102083D03*
X0138050Y0112083D03*
X0136800Y0152083D03*
X0136800Y0162083D03*
X0133050Y0173333D03*
X0114300Y0185833D03*
X0109300Y0178333D03*
X0104300Y0185833D03*
X0079300Y0180833D03*
X0079300Y0160833D03*
X0133050Y0193333D03*
X0153050Y0173333D03*
X0153050Y0159583D03*
X0188050Y0183333D03*
X0188050Y0193333D03*
X0193050Y0159583D03*
D12*
X0153050Y0193333D03*
X0131800Y0082083D03*
D13*
X0038129Y0170784D03*
X0033404Y0173934D03*
X0038129Y0177083D03*
X0033404Y0180233D03*
X0038129Y0183383D03*
X0063926Y0192083D03*
X0071800Y0192083D03*
X0079674Y0192083D03*
D14*
X0018050Y0191453D03*
X0018050Y0162713D03*
D15*
X0006800Y0137083D03*
X0006800Y0127083D03*
X0006800Y0117083D03*
X0006800Y0107083D03*
X0006800Y0097083D03*
X0006800Y0087083D03*
X0006800Y0077083D03*
X0006800Y0067083D03*
X0073050Y0070833D03*
X0073050Y0080833D03*
X0073050Y0090833D03*
X0128050Y0010833D03*
X0138050Y0010833D03*
X0148050Y0010833D03*
X0160550Y0010833D03*
X0170550Y0010833D03*
X0180550Y0010833D03*
X0194300Y0007083D03*
X0194300Y0017083D03*
X0194300Y0027083D03*
X0194300Y0037083D03*
X0194300Y0047083D03*
X0194300Y0067083D03*
X0194300Y0077083D03*
X0194300Y0087083D03*
X0194300Y0097083D03*
X0194300Y0107083D03*
X0194300Y0117083D03*
X0194300Y0127083D03*
X0194300Y0137083D03*
D16*
X0124400Y0132083D02*
X0119200Y0132083D01*
X0119200Y0142083D02*
X0124400Y0142083D01*
X0124400Y0152083D02*
X0119200Y0152083D01*
X0119200Y0162083D02*
X0124400Y0162083D01*
X0094400Y0162083D02*
X0089200Y0162083D01*
X0089200Y0152083D02*
X0094400Y0152083D01*
X0094400Y0142083D02*
X0089200Y0142083D01*
X0089200Y0132083D02*
X0094400Y0132083D01*
X0094400Y0122083D02*
X0089200Y0122083D01*
X0089200Y0112083D02*
X0094400Y0112083D01*
X0094400Y0102083D02*
X0089200Y0102083D01*
X0089200Y0092083D02*
X0094400Y0092083D01*
X0094400Y0082083D02*
X0089200Y0082083D01*
X0089200Y0072083D02*
X0094400Y0072083D01*
X0094400Y0062083D02*
X0089200Y0062083D01*
X0089200Y0052083D02*
X0094400Y0052083D01*
X0094400Y0042083D02*
X0089200Y0042083D01*
X0089200Y0032083D02*
X0094400Y0032083D01*
X0119200Y0032083D02*
X0124400Y0032083D01*
X0124400Y0042083D02*
X0119200Y0042083D01*
X0119200Y0052083D02*
X0124400Y0052083D01*
X0124400Y0062083D02*
X0119200Y0062083D01*
X0119200Y0072083D02*
X0124400Y0072083D01*
X0124400Y0082083D02*
X0119200Y0082083D01*
X0119200Y0092083D02*
X0124400Y0092083D01*
X0124400Y0102083D02*
X0119200Y0102083D01*
X0119200Y0112083D02*
X0124400Y0112083D01*
X0124400Y0122083D02*
X0119200Y0122083D01*
D17*
X0087548Y0192083D03*
X0056052Y0192083D03*
D18*
X0056800Y0179583D03*
X0053050Y0173333D03*
X0061800Y0172083D03*
X0066800Y0177083D03*
X0071800Y0182083D03*
X0051800Y0157083D03*
X0051800Y0147083D03*
X0036800Y0157083D03*
X0041800Y0162083D03*
X0031800Y0147083D03*
X0051800Y0122083D03*
X0056800Y0122083D03*
X0076800Y0107083D03*
X0081800Y0097083D03*
X0056800Y0072083D03*
X0056800Y0047083D03*
X0051800Y0047083D03*
X0066800Y0027083D03*
X0101800Y0022083D03*
X0106800Y0032083D03*
X0111800Y0057083D03*
X0116800Y0057083D03*
X0111800Y0067083D03*
X0116800Y0077083D03*
X0151800Y0057083D03*
X0161800Y0057083D03*
X0166800Y0047083D03*
X0171800Y0037083D03*
X0161800Y0027083D03*
X0158050Y0018333D03*
X0141800Y0037083D03*
X0156800Y0067083D03*
X0171800Y0072083D03*
X0166800Y0082083D03*
X0161800Y0092083D03*
X0156800Y0102083D03*
X0186800Y0082083D03*
X0185550Y0034583D03*
X0188050Y0015833D03*
X0111800Y0117083D03*
X0081800Y0137083D03*
X0121800Y0177083D03*
X0026800Y0062083D03*
D19*
X0021800Y0067083D01*
X0021800Y0082083D01*
X0006800Y0097083D01*
X0006800Y0087083D02*
X0016800Y0077083D01*
X0016800Y0062083D01*
X0005550Y0050833D01*
X0005550Y0048333D01*
X0051800Y0047083D02*
X0051800Y0122083D01*
X0056800Y0122083D02*
X0056800Y0072083D01*
X0056800Y0047083D01*
X0065550Y0034583D02*
X0068050Y0032083D01*
X0080550Y0032083D01*
X0091800Y0042083D02*
X0101800Y0032083D01*
X0101800Y0022083D01*
X0106800Y0017083D02*
X0106800Y0032083D01*
X0111800Y0024583D02*
X0118050Y0018333D01*
X0111800Y0024583D02*
X0111800Y0057083D01*
X0116800Y0057083D02*
X0101800Y0072083D01*
X0101800Y0127083D01*
X0096800Y0132083D01*
X0091800Y0132083D01*
X0081800Y0137083D02*
X0081800Y0152083D01*
X0091800Y0162083D01*
X0106800Y0175833D02*
X0109300Y0178333D01*
X0106800Y0175833D02*
X0106800Y0072083D01*
X0111800Y0067083D01*
X0116800Y0077083D02*
X0111800Y0082083D01*
X0111800Y0117083D01*
X0111800Y0122083D02*
X0121800Y0112083D01*
X0111800Y0122083D02*
X0111800Y0157083D01*
X0116800Y0162083D01*
X0121800Y0162083D01*
X0121800Y0177083D01*
X0136800Y0152083D02*
X0141800Y0152083D01*
X0146800Y0147083D01*
X0146800Y0107083D01*
X0141800Y0102083D01*
X0138050Y0102083D01*
X0156800Y0102083D02*
X0156800Y0067083D01*
X0151800Y0057083D02*
X0156800Y0052083D01*
X0156800Y0032083D01*
X0161800Y0027083D01*
X0158050Y0018333D02*
X0150550Y0010833D01*
X0148050Y0010833D01*
X0146800Y0012083D01*
X0146800Y0032083D01*
X0141800Y0037083D01*
X0161800Y0057083D02*
X0161800Y0092083D01*
X0166800Y0082083D02*
X0166800Y0047083D01*
X0171800Y0037083D02*
X0171800Y0072083D01*
X0186800Y0082083D02*
X0186800Y0054583D01*
X0194300Y0047083D01*
X0185550Y0034583D02*
X0193050Y0027083D01*
X0194300Y0027083D01*
X0180550Y0013333D01*
X0180550Y0010833D01*
X0188050Y0013333D02*
X0194300Y0007083D01*
X0188050Y0013333D02*
X0188050Y0015833D01*
X0118050Y0007083D02*
X0116800Y0007083D01*
X0106800Y0017083D01*
X0078050Y0018333D02*
X0078050Y0007083D01*
X0066800Y0027083D02*
X0061800Y0032083D01*
X0061800Y0172083D01*
X0066800Y0177083D02*
X0066800Y0112083D01*
X0081800Y0097083D01*
X0076800Y0107083D02*
X0071800Y0112083D01*
X0071800Y0182083D01*
X0079300Y0180833D02*
X0079674Y0181207D01*
X0079674Y0192083D01*
X0056800Y0179583D02*
X0056800Y0152083D01*
X0051800Y0147083D01*
X0051800Y0157083D02*
X0053050Y0158333D01*
X0053050Y0173333D01*
X0041800Y0162083D02*
X0038129Y0165755D01*
X0038129Y0170784D01*
X0033404Y0173934D02*
X0033050Y0173579D01*
X0033050Y0159583D01*
X0035550Y0157083D01*
X0036800Y0157083D01*
X0031800Y0147083D02*
X0026800Y0152083D01*
X0026800Y0173629D01*
X0033404Y0180233D01*
X0070550Y0080833D02*
X0065550Y0075833D01*
X0065550Y0034583D01*
X0070550Y0080833D02*
X0073050Y0080833D01*
X0188050Y0164583D02*
X0193050Y0159583D01*
X0188050Y0164583D02*
X0188050Y0183333D01*
M02*
