G75*
%MOIN*%
%OFA0B0*%
%FSLAX25Y25*%
%IPPOS*%
%LPD*%
%AMOC8*
5,1,8,0,0,1.08239X$1,22.5*
%
%ADD10C,0.00000*%
%ADD11OC8,0.05600*%
%ADD12C,0.05600*%
%ADD13C,0.05550*%
%ADD14C,0.11620*%
%ADD15C,0.07800*%
%ADD16C,0.05600*%
%ADD17C,0.06337*%
D10*
X0001800Y0002083D02*
X0001800Y0198934D01*
X0198650Y0198934D01*
X0198650Y0002083D01*
X0001800Y0002083D01*
D11*
X0034300Y0008333D03*
X0034300Y0048333D03*
X0015550Y0048333D03*
X0005550Y0048333D03*
X0078050Y0018333D03*
X0078050Y0007083D03*
X0080550Y0032083D03*
X0080550Y0042083D03*
X0118050Y0018333D03*
X0118050Y0007083D03*
X0151800Y0082083D03*
X0138050Y0102083D03*
X0138050Y0112083D03*
X0136800Y0152083D03*
X0136800Y0162083D03*
X0133050Y0173333D03*
X0114300Y0185833D03*
X0109300Y0178333D03*
X0104300Y0185833D03*
X0079300Y0180833D03*
X0079300Y0160833D03*
X0133050Y0193333D03*
X0153050Y0173333D03*
X0153050Y0159583D03*
X0188050Y0183333D03*
X0188050Y0193333D03*
X0193050Y0159583D03*
D12*
X0153050Y0193333D03*
X0131800Y0082083D03*
D13*
X0038129Y0170784D03*
X0033404Y0173934D03*
X0038129Y0177083D03*
X0033404Y0180233D03*
X0038129Y0183383D03*
X0063926Y0192083D03*
X0071800Y0192083D03*
X0079674Y0192083D03*
D14*
X0018050Y0191453D03*
X0018050Y0162713D03*
D15*
X0006800Y0137083D03*
X0006800Y0127083D03*
X0006800Y0117083D03*
X0006800Y0107083D03*
X0006800Y0097083D03*
X0006800Y0087083D03*
X0006800Y0077083D03*
X0006800Y0067083D03*
X0073050Y0070833D03*
X0073050Y0080833D03*
X0073050Y0090833D03*
X0128050Y0010833D03*
X0138050Y0010833D03*
X0148050Y0010833D03*
X0160550Y0010833D03*
X0170550Y0010833D03*
X0180550Y0010833D03*
X0194300Y0007083D03*
X0194300Y0017083D03*
X0194300Y0027083D03*
X0194300Y0037083D03*
X0194300Y0047083D03*
X0194300Y0067083D03*
X0194300Y0077083D03*
X0194300Y0087083D03*
X0194300Y0097083D03*
X0194300Y0107083D03*
X0194300Y0117083D03*
X0194300Y0127083D03*
X0194300Y0137083D03*
D16*
X0124400Y0132083D02*
X0119200Y0132083D01*
X0119200Y0142083D02*
X0124400Y0142083D01*
X0124400Y0152083D02*
X0119200Y0152083D01*
X0119200Y0162083D02*
X0124400Y0162083D01*
X0094400Y0162083D02*
X0089200Y0162083D01*
X0089200Y0152083D02*
X0094400Y0152083D01*
X0094400Y0142083D02*
X0089200Y0142083D01*
X0089200Y0132083D02*
X0094400Y0132083D01*
X0094400Y0122083D02*
X0089200Y0122083D01*
X0089200Y0112083D02*
X0094400Y0112083D01*
X0094400Y0102083D02*
X0089200Y0102083D01*
X0089200Y0092083D02*
X0094400Y0092083D01*
X0094400Y0082083D02*
X0089200Y0082083D01*
X0089200Y0072083D02*
X0094400Y0072083D01*
X0094400Y0062083D02*
X0089200Y0062083D01*
X0089200Y0052083D02*
X0094400Y0052083D01*
X0094400Y0042083D02*
X0089200Y0042083D01*
X0089200Y0032083D02*
X0094400Y0032083D01*
X0119200Y0032083D02*
X0124400Y0032083D01*
X0124400Y0042083D02*
X0119200Y0042083D01*
X0119200Y0052083D02*
X0124400Y0052083D01*
X0124400Y0062083D02*
X0119200Y0062083D01*
X0119200Y0072083D02*
X0124400Y0072083D01*
X0124400Y0082083D02*
X0119200Y0082083D01*
X0119200Y0092083D02*
X0124400Y0092083D01*
X0124400Y0102083D02*
X0119200Y0102083D01*
X0119200Y0112083D02*
X0124400Y0112083D01*
X0124400Y0122083D02*
X0119200Y0122083D01*
D17*
X0087548Y0192083D03*
X0056052Y0192083D03*
M02*
