G75*
%MOIN*%
%OFA0B0*%
%FSLAX25Y25*%
%IPPOS*%
%LPD*%
%AMOC8*
5,1,8,0,0,1.08239X$1,22.5*
%
%ADD10C,0.00000*%
%ADD11C,0.00600*%
%ADD12C,0.00500*%
D10*
X0001800Y0002083D02*
X0001800Y0198934D01*
X0198650Y0198934D01*
X0198650Y0002083D01*
X0001800Y0002083D01*
D11*
X0020406Y0063633D02*
X0019339Y0064701D01*
X0019339Y0068971D01*
X0020406Y0070039D01*
X0023609Y0070039D01*
X0023609Y0063633D01*
X0020406Y0063633D01*
X0025784Y0063633D02*
X0025784Y0070039D01*
X0030055Y0070039D02*
X0025784Y0063633D01*
X0030055Y0063633D02*
X0030055Y0070039D01*
X0032230Y0068971D02*
X0033297Y0070039D01*
X0035432Y0070039D01*
X0036500Y0068971D01*
X0036500Y0064701D01*
X0035432Y0063633D01*
X0033297Y0063633D01*
X0032230Y0064701D01*
X0032230Y0066836D01*
X0034365Y0066836D01*
X0028987Y0074883D02*
X0026852Y0074883D01*
X0025784Y0075951D01*
X0025784Y0077018D01*
X0026852Y0078086D01*
X0027919Y0078086D01*
X0026852Y0078086D02*
X0025784Y0079154D01*
X0025784Y0080221D01*
X0026852Y0081289D01*
X0028987Y0081289D01*
X0030055Y0080221D01*
X0032230Y0078086D02*
X0036500Y0078086D01*
X0034365Y0080221D02*
X0034365Y0075951D01*
X0030055Y0075951D02*
X0028987Y0074883D01*
X0023609Y0077018D02*
X0023609Y0081289D01*
X0024352Y0083633D02*
X0024352Y0090039D01*
X0027555Y0086836D01*
X0023284Y0086836D01*
X0029730Y0086836D02*
X0034000Y0086836D01*
X0034000Y0087904D02*
X0034000Y0083633D01*
X0029730Y0083633D02*
X0029730Y0087904D01*
X0031865Y0090039D01*
X0034000Y0087904D01*
X0034000Y0093633D02*
X0030797Y0093633D01*
X0029730Y0094701D01*
X0029730Y0095768D01*
X0030797Y0096836D01*
X0034000Y0096836D01*
X0034000Y0093633D02*
X0034000Y0100039D01*
X0030797Y0100039D01*
X0029730Y0098971D01*
X0029730Y0097904D01*
X0030797Y0096836D01*
X0027555Y0096836D02*
X0023284Y0096836D01*
X0024352Y0093633D02*
X0024352Y0100039D01*
X0027555Y0096836D01*
X0026487Y0103633D02*
X0024352Y0103633D01*
X0023284Y0104701D01*
X0023284Y0105768D01*
X0024352Y0106836D01*
X0025419Y0106836D01*
X0024352Y0106836D02*
X0023284Y0107904D01*
X0023284Y0108971D01*
X0024352Y0110039D01*
X0026487Y0110039D01*
X0027555Y0108971D01*
X0029730Y0108971D02*
X0029730Y0107904D01*
X0030797Y0106836D01*
X0034000Y0106836D01*
X0034000Y0103633D02*
X0034000Y0110039D01*
X0030797Y0110039D01*
X0029730Y0108971D01*
X0030797Y0106836D02*
X0029730Y0105768D01*
X0029730Y0104701D01*
X0030797Y0103633D01*
X0034000Y0103633D01*
X0027555Y0104701D02*
X0026487Y0103633D01*
X0027555Y0113633D02*
X0023284Y0113633D01*
X0027555Y0113633D02*
X0023284Y0117904D01*
X0023284Y0118971D01*
X0024352Y0120039D01*
X0026487Y0120039D01*
X0027555Y0118971D01*
X0029730Y0118971D02*
X0029730Y0117904D01*
X0030797Y0116836D01*
X0034000Y0116836D01*
X0034000Y0113633D02*
X0030797Y0113633D01*
X0029730Y0114701D01*
X0029730Y0115768D01*
X0030797Y0116836D01*
X0029730Y0118971D02*
X0030797Y0120039D01*
X0034000Y0120039D01*
X0034000Y0113633D01*
X0034000Y0123633D02*
X0034000Y0127904D01*
X0031865Y0130039D01*
X0029730Y0127904D01*
X0029730Y0123633D01*
X0027555Y0123633D02*
X0023284Y0123633D01*
X0025419Y0123633D02*
X0025419Y0130039D01*
X0027555Y0127904D01*
X0029730Y0126836D02*
X0034000Y0126836D01*
X0034000Y0134883D02*
X0034000Y0139154D01*
X0031865Y0141289D01*
X0029730Y0139154D01*
X0029730Y0134883D01*
X0027555Y0135951D02*
X0023284Y0140221D01*
X0023284Y0135951D01*
X0024352Y0134883D01*
X0026487Y0134883D01*
X0027555Y0135951D01*
X0027555Y0140221D01*
X0026487Y0141289D01*
X0024352Y0141289D01*
X0023284Y0140221D01*
X0029730Y0138086D02*
X0034000Y0138086D01*
X0019339Y0081289D02*
X0019339Y0077018D01*
X0021474Y0074883D01*
X0023609Y0077018D01*
X0017164Y0075951D02*
X0016096Y0074883D01*
X0013961Y0074883D01*
X0012893Y0075951D01*
X0012893Y0077018D01*
X0013961Y0078086D01*
X0015028Y0078086D01*
X0013961Y0078086D02*
X0012893Y0079154D01*
X0012893Y0080221D01*
X0013961Y0081289D01*
X0016096Y0081289D01*
X0017164Y0080221D01*
X0165589Y0114701D02*
X0166656Y0113633D01*
X0168791Y0113633D01*
X0169859Y0114701D01*
X0172034Y0113633D02*
X0176305Y0113633D01*
X0174169Y0113633D02*
X0174169Y0120039D01*
X0176305Y0117904D01*
X0178480Y0117904D02*
X0179547Y0116836D01*
X0182750Y0116836D01*
X0182750Y0113633D02*
X0179547Y0113633D01*
X0178480Y0114701D01*
X0178480Y0115768D01*
X0179547Y0116836D01*
X0178480Y0117904D02*
X0178480Y0118971D01*
X0179547Y0120039D01*
X0182750Y0120039D01*
X0182750Y0113633D01*
X0182750Y0110039D02*
X0179547Y0110039D01*
X0178480Y0108971D01*
X0178480Y0107904D01*
X0179547Y0106836D01*
X0182750Y0106836D01*
X0182750Y0103633D02*
X0182750Y0110039D01*
X0179547Y0106836D02*
X0178480Y0105768D01*
X0178480Y0104701D01*
X0179547Y0103633D01*
X0182750Y0103633D01*
X0182750Y0100039D02*
X0179547Y0100039D01*
X0178480Y0098971D01*
X0178480Y0097904D01*
X0179547Y0096836D01*
X0182750Y0096836D01*
X0182750Y0093633D02*
X0182750Y0100039D01*
X0179547Y0096836D02*
X0178480Y0095768D01*
X0178480Y0094701D01*
X0179547Y0093633D01*
X0182750Y0093633D01*
X0182750Y0090039D02*
X0179547Y0090039D01*
X0178480Y0088971D01*
X0178480Y0087904D01*
X0179547Y0086836D01*
X0182750Y0086836D01*
X0182750Y0083633D02*
X0179547Y0083633D01*
X0178480Y0084701D01*
X0178480Y0085768D01*
X0179547Y0086836D01*
X0182750Y0083633D02*
X0182750Y0090039D01*
X0176305Y0090039D02*
X0172034Y0090039D01*
X0172034Y0088971D01*
X0176305Y0084701D01*
X0176305Y0083633D01*
X0176109Y0080039D02*
X0176109Y0075768D01*
X0173974Y0073633D01*
X0171839Y0075768D01*
X0171839Y0080039D01*
X0178284Y0080039D02*
X0182555Y0080039D01*
X0182555Y0076836D01*
X0180419Y0077904D01*
X0179352Y0077904D01*
X0178284Y0076836D01*
X0178284Y0074701D01*
X0179352Y0073633D01*
X0181487Y0073633D01*
X0182555Y0074701D01*
X0184730Y0076836D02*
X0189000Y0076836D01*
X0186865Y0078971D02*
X0186865Y0074701D01*
X0184182Y0070039D02*
X0182047Y0070039D01*
X0180980Y0068971D01*
X0180980Y0066836D02*
X0183115Y0066836D01*
X0180980Y0066836D02*
X0180980Y0064701D01*
X0182047Y0063633D01*
X0184182Y0063633D01*
X0185250Y0064701D01*
X0185250Y0068971D01*
X0184182Y0070039D01*
X0178805Y0070039D02*
X0178805Y0063633D01*
X0174534Y0063633D02*
X0174534Y0070039D01*
X0172359Y0070039D02*
X0169156Y0070039D01*
X0168089Y0068971D01*
X0168089Y0064701D01*
X0169156Y0063633D01*
X0172359Y0063633D01*
X0172359Y0070039D01*
X0178805Y0070039D02*
X0174534Y0063633D01*
X0175237Y0093633D02*
X0173102Y0093633D01*
X0172034Y0094701D01*
X0172034Y0095768D01*
X0173102Y0096836D01*
X0175237Y0096836D01*
X0176305Y0097904D01*
X0176305Y0098971D01*
X0175237Y0100039D01*
X0173102Y0100039D01*
X0172034Y0098971D01*
X0172034Y0097904D01*
X0173102Y0096836D01*
X0175237Y0096836D02*
X0176305Y0095768D01*
X0176305Y0094701D01*
X0175237Y0093633D01*
X0175237Y0103633D02*
X0173102Y0103633D01*
X0172034Y0104701D01*
X0172034Y0108971D01*
X0173102Y0110039D01*
X0175237Y0110039D01*
X0176305Y0108971D01*
X0176305Y0107904D01*
X0175237Y0106836D01*
X0172034Y0106836D01*
X0175237Y0103633D02*
X0176305Y0104701D01*
X0165589Y0114701D02*
X0165589Y0115768D01*
X0166656Y0116836D01*
X0167724Y0116836D01*
X0166656Y0116836D02*
X0165589Y0117904D01*
X0165589Y0118971D01*
X0166656Y0120039D01*
X0168791Y0120039D01*
X0169859Y0118971D01*
X0172034Y0123633D02*
X0176305Y0123633D01*
X0174169Y0123633D02*
X0174169Y0130039D01*
X0176305Y0127904D01*
X0178480Y0127904D02*
X0179547Y0126836D01*
X0182750Y0126836D01*
X0182750Y0123633D02*
X0179547Y0123633D01*
X0178480Y0124701D01*
X0178480Y0125768D01*
X0179547Y0126836D01*
X0178480Y0127904D02*
X0178480Y0128971D01*
X0179547Y0130039D01*
X0182750Y0130039D01*
X0182750Y0123633D01*
X0182750Y0133633D02*
X0179547Y0133633D01*
X0178480Y0134701D01*
X0178480Y0135768D01*
X0179547Y0136836D01*
X0182750Y0136836D01*
X0182750Y0133633D02*
X0182750Y0140039D01*
X0179547Y0140039D01*
X0178480Y0138971D01*
X0178480Y0137904D01*
X0179547Y0136836D01*
X0176305Y0137904D02*
X0174169Y0140039D01*
X0174169Y0133633D01*
X0172034Y0133633D02*
X0176305Y0133633D01*
X0169859Y0134701D02*
X0168791Y0133633D01*
X0166656Y0133633D01*
X0165589Y0134701D01*
X0165589Y0136836D01*
X0166656Y0137904D01*
X0167724Y0137904D01*
X0169859Y0136836D01*
X0169859Y0140039D01*
X0165589Y0140039D01*
X0166656Y0130039D02*
X0169859Y0126836D01*
X0165589Y0126836D01*
X0166656Y0123633D02*
X0166656Y0130039D01*
D12*
X0038719Y0161729D02*
X0003286Y0161729D01*
X0003286Y0192438D01*
X0038719Y0192438D01*
X0038719Y0161729D01*
X0024940Y0174131D02*
X0005255Y0172162D01*
X0005255Y0169209D02*
X0022971Y0171178D01*
X0024940Y0174131D02*
X0024940Y0180036D01*
X0005255Y0182005D01*
X0005255Y0184957D02*
X0021003Y0182989D01*
X0021003Y0190863D02*
X0005255Y0188894D01*
X0005255Y0184957D01*
X0005255Y0169209D02*
X0005255Y0165272D01*
X0022971Y0163304D01*
M02*
