%
M48
M72
T01C0.01969
T02C0.03150
T03C0.03200
T04C0.03937
T05C0.04000
T06C0.07480
%
T01
X51800Y47083
X56800Y47083
X66800Y27083
X101800Y22083
X106800Y32083
X111800Y57083
X116800Y57083
X111800Y67083
X116800Y77083
X151800Y57083
X161800Y57083
X166800Y47083
X171800Y37083
X161800Y27083
X158050Y18333
X141800Y37083
X156800Y67083
X171800Y72083
X166800Y82083
X161800Y92083
X156800Y102083
X186800Y82083
X185550Y34583
X188050Y15833
X111800Y117083
X81800Y97083
X76800Y107083
X56800Y122083
X51800Y122083
X51800Y147083
X51800Y157083
X41800Y162083
X36800Y157083
X31800Y147083
X53050Y173333
X56800Y179583
X61800Y172083
X66800Y177083
X71800Y182083
X81800Y137083
X121800Y177083
X56800Y72083
X26800Y62083
T02
X38129Y170784
X33404Y173934
X38129Y177083
X33404Y180233
X38129Y183383
X63926Y192083
X71800Y192083
X79674Y192083
T03
X79300Y180833
X91800Y162083
X91800Y152083
X91800Y142083
X91800Y132083
X91800Y122083
X91800Y112083
X91800Y102083
X91800Y92083
X91800Y82083
X91800Y72083
X91800Y62083
X91800Y52083
X91800Y42083
X91800Y32083
X80550Y32083
X80550Y42083
X78050Y18333
X78050Y7083
X118050Y7083
X118050Y18333
X121800Y32083
X121800Y42083
X121800Y52083
X121800Y62083
X121800Y72083
X121800Y82083
X131800Y82083
X121800Y92083
X121800Y102083
X121800Y112083
X121800Y122083
X121800Y132083
X121800Y142083
X121800Y152083
X121800Y162083
X133050Y173333
X136800Y162083
X136800Y152083
X153050Y159583
X153050Y173333
X153050Y193333
X133050Y193333
X114300Y185833
X109300Y178333
X104300Y185833
X79300Y160833
X138050Y112083
X138050Y102083
X151800Y82083
X193050Y159583
X188050Y183333
X188050Y193333
X34300Y48333
X15550Y48333
X5550Y48333
X34300Y8333
T04
X56052Y192083
X87548Y192083
T05
X6800Y137083
X6800Y127083
X6800Y117083
X6800Y107083
X6800Y97083
X6800Y87083
X6800Y77083
X6800Y67083
X73050Y70833
X73050Y80833
X73050Y90833
X128050Y10833
X138050Y10833
X148050Y10833
X160550Y10833
X170550Y10833
X180550Y10833
X194300Y7083
X194300Y17083
X194300Y27083
X194300Y37083
X194300Y47083
X194300Y67083
X194300Y77083
X194300Y87083
X194300Y97083
X194300Y107083
X194300Y117083
X194300Y127083
X194300Y137083
T06
X18050Y191453
X18050Y162713
M30
