G75*
%MOIN*%
%OFA0B0*%
%FSLAX25Y25*%
%IPPOS*%
%LPD*%
%AMOC8*
5,1,8,0,0,1.08239X$1,22.5*
%
%ADD10C,0.00000*%
%ADD11OC8,0.05200*%
%ADD12C,0.05200*%
%ADD13C,0.05150*%
%ADD14C,0.11220*%
%ADD15C,0.07400*%
%ADD16C,0.05200*%
%ADD17C,0.05937*%
%ADD18C,0.01600*%
%ADD19C,0.03169*%
D10*
X0001800Y0002083D02*
X0001800Y0198934D01*
X0198650Y0198934D01*
X0198650Y0002083D01*
X0001800Y0002083D01*
D11*
X0034300Y0008333D03*
X0034300Y0048333D03*
X0015550Y0048333D03*
X0005550Y0048333D03*
X0078050Y0018333D03*
X0078050Y0007083D03*
X0080550Y0032083D03*
X0080550Y0042083D03*
X0118050Y0018333D03*
X0118050Y0007083D03*
X0151800Y0082083D03*
X0138050Y0102083D03*
X0138050Y0112083D03*
X0136800Y0152083D03*
X0136800Y0162083D03*
X0133050Y0173333D03*
X0114300Y0185833D03*
X0109300Y0178333D03*
X0104300Y0185833D03*
X0079300Y0180833D03*
X0079300Y0160833D03*
X0133050Y0193333D03*
X0153050Y0173333D03*
X0153050Y0159583D03*
X0188050Y0183333D03*
X0188050Y0193333D03*
X0193050Y0159583D03*
D12*
X0153050Y0193333D03*
X0131800Y0082083D03*
D13*
X0038129Y0170784D03*
X0033404Y0173934D03*
X0038129Y0177083D03*
X0033404Y0180233D03*
X0038129Y0183383D03*
X0063926Y0192083D03*
X0071800Y0192083D03*
X0079674Y0192083D03*
D14*
X0018050Y0191453D03*
X0018050Y0162713D03*
D15*
X0006800Y0137083D03*
X0006800Y0127083D03*
X0006800Y0117083D03*
X0006800Y0107083D03*
X0006800Y0097083D03*
X0006800Y0087083D03*
X0006800Y0077083D03*
X0006800Y0067083D03*
X0073050Y0070833D03*
X0073050Y0080833D03*
X0073050Y0090833D03*
X0128050Y0010833D03*
X0138050Y0010833D03*
X0148050Y0010833D03*
X0160550Y0010833D03*
X0170550Y0010833D03*
X0180550Y0010833D03*
X0194300Y0007083D03*
X0194300Y0017083D03*
X0194300Y0027083D03*
X0194300Y0037083D03*
X0194300Y0047083D03*
X0194300Y0067083D03*
X0194300Y0077083D03*
X0194300Y0087083D03*
X0194300Y0097083D03*
X0194300Y0107083D03*
X0194300Y0117083D03*
X0194300Y0127083D03*
X0194300Y0137083D03*
D16*
X0124400Y0132083D02*
X0119200Y0132083D01*
X0119200Y0142083D02*
X0124400Y0142083D01*
X0124400Y0152083D02*
X0119200Y0152083D01*
X0119200Y0162083D02*
X0124400Y0162083D01*
X0094400Y0162083D02*
X0089200Y0162083D01*
X0089200Y0152083D02*
X0094400Y0152083D01*
X0094400Y0142083D02*
X0089200Y0142083D01*
X0089200Y0132083D02*
X0094400Y0132083D01*
X0094400Y0122083D02*
X0089200Y0122083D01*
X0089200Y0112083D02*
X0094400Y0112083D01*
X0094400Y0102083D02*
X0089200Y0102083D01*
X0089200Y0092083D02*
X0094400Y0092083D01*
X0094400Y0082083D02*
X0089200Y0082083D01*
X0089200Y0072083D02*
X0094400Y0072083D01*
X0094400Y0062083D02*
X0089200Y0062083D01*
X0089200Y0052083D02*
X0094400Y0052083D01*
X0094400Y0042083D02*
X0089200Y0042083D01*
X0089200Y0032083D02*
X0094400Y0032083D01*
X0119200Y0032083D02*
X0124400Y0032083D01*
X0124400Y0042083D02*
X0119200Y0042083D01*
X0119200Y0052083D02*
X0124400Y0052083D01*
X0124400Y0062083D02*
X0119200Y0062083D01*
X0119200Y0072083D02*
X0124400Y0072083D01*
X0124400Y0082083D02*
X0119200Y0082083D01*
X0119200Y0092083D02*
X0124400Y0092083D01*
X0124400Y0102083D02*
X0119200Y0102083D01*
X0119200Y0112083D02*
X0124400Y0112083D01*
X0124400Y0122083D02*
X0119200Y0122083D01*
D17*
X0087548Y0192083D03*
X0056052Y0192083D03*
D18*
X0057996Y0187511D02*
X0063011Y0187511D01*
X0063016Y0187509D02*
X0064836Y0187509D01*
X0066517Y0188205D01*
X0067804Y0189492D01*
X0067863Y0189634D01*
X0067922Y0189492D01*
X0069000Y0188414D01*
X0069000Y0188243D01*
X0066939Y0186183D01*
X0041798Y0186183D01*
X0040720Y0187261D01*
X0039039Y0187957D01*
X0037219Y0187957D01*
X0035537Y0187261D01*
X0034250Y0185974D01*
X0033767Y0184808D01*
X0032494Y0184808D01*
X0030813Y0184111D01*
X0029526Y0182824D01*
X0028830Y0181143D01*
X0028830Y0179323D01*
X0029526Y0177642D01*
X0030084Y0177083D01*
X0029526Y0176525D01*
X0028830Y0174844D01*
X0028830Y0173024D01*
X0029526Y0171342D01*
X0030813Y0170055D01*
X0032494Y0169359D01*
X0033992Y0169359D01*
X0034074Y0169105D01*
X0034387Y0168491D01*
X0034792Y0167934D01*
X0035279Y0167447D01*
X0035836Y0167042D01*
X0036449Y0166730D01*
X0024623Y0166730D01*
X0024502Y0167024D02*
X0022361Y0169165D01*
X0019564Y0170323D01*
X0016536Y0170323D01*
X0013739Y0169165D01*
X0011598Y0167024D01*
X0010440Y0164227D01*
X0010440Y0161199D01*
X0011598Y0158402D01*
X0013739Y0156262D01*
X0016536Y0155103D01*
X0019564Y0155103D01*
X0022361Y0156262D01*
X0024502Y0158402D01*
X0025660Y0161199D01*
X0025660Y0164227D01*
X0024502Y0167024D01*
X0023197Y0168329D02*
X0034505Y0168329D01*
X0036449Y0166730D02*
X0037104Y0166517D01*
X0037784Y0166409D01*
X0038129Y0166409D01*
X0038473Y0166409D01*
X0039153Y0166517D01*
X0039808Y0166730D01*
X0040422Y0167042D01*
X0040979Y0167447D01*
X0041466Y0167934D01*
X0041870Y0168491D01*
X0042183Y0169105D01*
X0042396Y0169760D01*
X0042504Y0170440D01*
X0042504Y0170784D01*
X0038129Y0170784D01*
X0038129Y0170784D01*
X0042504Y0170784D01*
X0042504Y0171128D01*
X0042396Y0171809D01*
X0042183Y0172463D01*
X0041870Y0173077D01*
X0041466Y0173634D01*
X0041307Y0173792D01*
X0041798Y0174283D01*
X0049564Y0174283D01*
X0049466Y0174046D01*
X0049466Y0172620D01*
X0050011Y0171303D01*
X0051020Y0170295D01*
X0052337Y0169749D01*
X0053763Y0169749D01*
X0055080Y0170295D01*
X0055919Y0171134D01*
X0058314Y0171134D01*
X0058761Y0170053D01*
X0059770Y0169045D01*
X0061087Y0168499D01*
X0062513Y0168499D01*
X0063830Y0169045D01*
X0064839Y0170053D01*
X0065384Y0171370D01*
X0065384Y0172796D01*
X0064887Y0173996D01*
X0066087Y0173499D01*
X0067513Y0173499D01*
X0068830Y0174045D01*
X0069839Y0175053D01*
X0070384Y0176370D01*
X0070384Y0177433D01*
X0070507Y0177433D01*
X0071536Y0177859D01*
X0072176Y0178499D01*
X0072513Y0178499D01*
X0073830Y0179045D01*
X0074700Y0179914D01*
X0074700Y0178928D01*
X0077395Y0176233D01*
X0081205Y0176233D01*
X0083005Y0178033D01*
X0104700Y0178033D01*
X0104700Y0176428D01*
X0107395Y0173733D01*
X0111205Y0173733D01*
X0113900Y0176428D01*
X0113900Y0179283D01*
X0115640Y0179283D01*
X0118216Y0176708D01*
X0118216Y0176370D01*
X0118761Y0175053D01*
X0119770Y0174045D01*
X0121087Y0173499D01*
X0122513Y0173499D01*
X0123830Y0174045D01*
X0124839Y0175053D01*
X0125384Y0176370D01*
X0125384Y0177796D01*
X0124839Y0179114D01*
X0123830Y0180122D01*
X0122513Y0180668D01*
X0122176Y0180668D01*
X0118700Y0184143D01*
X0118700Y0185833D01*
X0114300Y0185833D01*
X0114300Y0185833D01*
X0118700Y0185833D01*
X0118700Y0187656D01*
X0117073Y0189283D01*
X0130595Y0189283D01*
X0131145Y0188733D01*
X0134955Y0188733D01*
X0136755Y0190533D01*
X0149345Y0190533D01*
X0150444Y0189434D01*
X0152135Y0188733D01*
X0153965Y0188733D01*
X0155656Y0189434D01*
X0156755Y0190533D01*
X0184345Y0190533D01*
X0186145Y0188733D01*
X0189955Y0188733D01*
X0192650Y0191428D01*
X0192650Y0195239D01*
X0190955Y0196934D01*
X0196650Y0196934D01*
X0196650Y0162488D01*
X0194955Y0164183D01*
X0191145Y0164183D01*
X0188450Y0161489D01*
X0188450Y0157678D01*
X0191145Y0154983D01*
X0194955Y0154983D01*
X0196650Y0156678D01*
X0196650Y0142279D01*
X0195434Y0142783D01*
X0193166Y0142783D01*
X0191071Y0141916D01*
X0189468Y0140312D01*
X0189290Y0139883D01*
X0128468Y0139883D01*
X0129000Y0141168D01*
X0129000Y0142998D01*
X0128300Y0144689D01*
X0127006Y0145983D01*
X0125315Y0146683D01*
X0118285Y0146683D01*
X0116594Y0145983D01*
X0115300Y0144689D01*
X0114600Y0142998D01*
X0114600Y0141168D01*
X0115300Y0139478D01*
X0116594Y0138184D01*
X0118285Y0137483D01*
X0122440Y0137483D01*
X0123240Y0136683D01*
X0118285Y0136683D01*
X0116594Y0135983D01*
X0115300Y0134689D01*
X0114600Y0132998D01*
X0114600Y0131168D01*
X0115300Y0129478D01*
X0116594Y0128184D01*
X0118285Y0127483D01*
X0122440Y0127483D01*
X0123240Y0126683D01*
X0118285Y0126683D01*
X0116594Y0125983D01*
X0115300Y0124689D01*
X0114672Y0123171D01*
X0108386Y0129457D01*
X0107357Y0129883D01*
X0098468Y0129883D01*
X0099000Y0131168D01*
X0099000Y0132998D01*
X0098300Y0134689D01*
X0097006Y0135983D01*
X0095315Y0136683D01*
X0088285Y0136683D01*
X0086594Y0135983D01*
X0085300Y0134689D01*
X0084600Y0132998D01*
X0084600Y0131168D01*
X0085132Y0129883D01*
X0078560Y0129883D01*
X0079174Y0130497D01*
X0082176Y0133499D01*
X0082513Y0133499D01*
X0083830Y0134045D01*
X0084839Y0135053D01*
X0085384Y0136370D01*
X0085384Y0137796D01*
X0084839Y0139114D01*
X0084669Y0139283D01*
X0085495Y0139283D01*
X0086594Y0138184D01*
X0088285Y0137483D01*
X0095315Y0137483D01*
X0097006Y0138184D01*
X0098300Y0139478D01*
X0099000Y0141168D01*
X0099000Y0142998D01*
X0098300Y0144689D01*
X0097006Y0145983D01*
X0095315Y0146683D01*
X0088285Y0146683D01*
X0086594Y0145983D01*
X0085495Y0144883D01*
X0054669Y0144883D01*
X0054839Y0145053D01*
X0055384Y0146370D01*
X0055384Y0147796D01*
X0054839Y0149114D01*
X0054669Y0149283D01*
X0085495Y0149283D01*
X0086594Y0148184D01*
X0088285Y0147483D01*
X0095315Y0147483D01*
X0097006Y0148184D01*
X0098300Y0149478D01*
X0099000Y0151168D01*
X0099000Y0152998D01*
X0098300Y0154689D01*
X0097006Y0155983D01*
X0095315Y0156683D01*
X0088285Y0156683D01*
X0086594Y0155983D01*
X0085495Y0154883D01*
X0054669Y0154883D01*
X0054839Y0155053D01*
X0055384Y0156370D01*
X0055384Y0157796D01*
X0054839Y0159114D01*
X0053830Y0160122D01*
X0052513Y0160668D01*
X0051087Y0160668D01*
X0049770Y0160122D01*
X0049531Y0159883D01*
X0039069Y0159883D01*
X0038830Y0160122D01*
X0037513Y0160668D01*
X0036087Y0160668D01*
X0034770Y0160122D01*
X0033761Y0159114D01*
X0033216Y0157796D01*
X0033216Y0156370D01*
X0033761Y0155053D01*
X0033931Y0154883D01*
X0021243Y0154883D01*
X0020214Y0154457D01*
X0019426Y0153669D01*
X0008363Y0142606D01*
X0007934Y0142783D01*
X0005666Y0142783D01*
X0003800Y0142010D01*
X0003800Y0196934D01*
X0012768Y0196934D01*
X0011598Y0195764D01*
X0010440Y0192967D01*
X0010440Y0189940D01*
X0011598Y0187143D01*
X0013739Y0185002D01*
X0016536Y0183843D01*
X0019564Y0183843D01*
X0022361Y0185002D01*
X0024502Y0187143D01*
X0025660Y0189940D01*
X0025660Y0192967D01*
X0024502Y0195764D01*
X0023332Y0196934D01*
X0054779Y0196934D01*
X0053238Y0196295D01*
X0051840Y0194898D01*
X0051083Y0193072D01*
X0051083Y0191095D01*
X0051840Y0189269D01*
X0053238Y0187871D01*
X0055064Y0187115D01*
X0057040Y0187115D01*
X0058866Y0187871D01*
X0060264Y0189269D01*
X0060266Y0189274D01*
X0061335Y0188205D01*
X0063016Y0187509D01*
X0064841Y0187511D02*
X0068268Y0187511D01*
X0068304Y0189109D02*
X0067422Y0189109D01*
X0071800Y0187083D02*
X0071800Y0192083D01*
X0071800Y0187083D02*
X0068099Y0183383D01*
X0038129Y0183383D01*
X0040117Y0187511D02*
X0054108Y0187511D01*
X0052000Y0189109D02*
X0025316Y0189109D01*
X0025660Y0190708D02*
X0051244Y0190708D01*
X0051083Y0192306D02*
X0025660Y0192306D01*
X0025272Y0193905D02*
X0051429Y0193905D01*
X0052445Y0195503D02*
X0024610Y0195503D01*
X0024654Y0187511D02*
X0036140Y0187511D01*
X0034225Y0185912D02*
X0023271Y0185912D01*
X0020700Y0184314D02*
X0031301Y0184314D01*
X0029481Y0182715D02*
X0003800Y0182715D01*
X0003800Y0181117D02*
X0028830Y0181117D01*
X0028830Y0179518D02*
X0003800Y0179518D01*
X0003800Y0177920D02*
X0029411Y0177920D01*
X0029441Y0176321D02*
X0003800Y0176321D01*
X0003800Y0174723D02*
X0028830Y0174723D01*
X0028830Y0173124D02*
X0003800Y0173124D01*
X0003800Y0171526D02*
X0029450Y0171526D01*
X0031123Y0169927D02*
X0020521Y0169927D01*
X0015579Y0169927D02*
X0003800Y0169927D01*
X0003800Y0168329D02*
X0012903Y0168329D01*
X0011477Y0166730D02*
X0003800Y0166730D01*
X0003800Y0165131D02*
X0010814Y0165131D01*
X0010440Y0163533D02*
X0003800Y0163533D01*
X0003800Y0161934D02*
X0010440Y0161934D01*
X0010797Y0160336D02*
X0003800Y0160336D01*
X0003800Y0158737D02*
X0011460Y0158737D01*
X0012862Y0157139D02*
X0003800Y0157139D01*
X0003800Y0155540D02*
X0015480Y0155540D01*
X0018100Y0152343D02*
X0003800Y0152343D01*
X0003800Y0150745D02*
X0016502Y0150745D01*
X0014903Y0149146D02*
X0003800Y0149146D01*
X0003800Y0147548D02*
X0013305Y0147548D01*
X0011706Y0145949D02*
X0003800Y0145949D01*
X0003800Y0144351D02*
X0010108Y0144351D01*
X0008509Y0142752D02*
X0008009Y0142752D01*
X0005591Y0142752D02*
X0003800Y0142752D01*
X0006800Y0137083D02*
X0021800Y0152083D01*
X0091800Y0152083D01*
X0095471Y0147548D02*
X0196650Y0147548D01*
X0196650Y0149146D02*
X0140086Y0149146D01*
X0141200Y0150261D02*
X0138623Y0147683D01*
X0136800Y0147683D01*
X0136800Y0152083D01*
X0136800Y0147683D01*
X0134977Y0147683D01*
X0132400Y0150261D01*
X0132400Y0152083D01*
X0136800Y0152083D01*
X0136800Y0152083D01*
X0136800Y0152083D01*
X0136800Y0152083D01*
X0141200Y0152083D01*
X0141200Y0150261D01*
X0141200Y0150745D02*
X0196650Y0150745D01*
X0196650Y0152343D02*
X0141200Y0152343D01*
X0141200Y0152083D02*
X0141200Y0153906D01*
X0138623Y0156483D01*
X0136800Y0156483D01*
X0134977Y0156483D01*
X0132400Y0153906D01*
X0132400Y0152083D01*
X0136800Y0152083D01*
X0141200Y0152083D01*
X0141164Y0153942D02*
X0196650Y0153942D01*
X0196650Y0155540D02*
X0195512Y0155540D01*
X0190588Y0155540D02*
X0155230Y0155540D01*
X0154873Y0155183D02*
X0157450Y0157761D01*
X0157450Y0159583D01*
X0153050Y0159583D01*
X0153050Y0155183D01*
X0154873Y0155183D01*
X0153050Y0155183D02*
X0153050Y0159583D01*
X0153050Y0159583D01*
X0153050Y0159583D01*
X0148650Y0159583D01*
X0148650Y0157761D01*
X0151227Y0155183D01*
X0153050Y0155183D01*
X0153050Y0155540D02*
X0153050Y0155540D01*
X0153050Y0157139D02*
X0153050Y0157139D01*
X0153050Y0158737D02*
X0153050Y0158737D01*
X0153050Y0159583D02*
X0153050Y0159583D01*
X0157450Y0159583D01*
X0157450Y0161406D01*
X0154873Y0163983D01*
X0153050Y0163983D01*
X0151227Y0163983D01*
X0148650Y0161406D01*
X0148650Y0159583D01*
X0153050Y0159583D01*
X0153050Y0163983D01*
X0153050Y0159583D01*
X0153050Y0159583D01*
X0153050Y0160336D02*
X0153050Y0160336D01*
X0153050Y0161934D02*
X0153050Y0161934D01*
X0153050Y0163533D02*
X0153050Y0163533D01*
X0155323Y0163533D02*
X0190494Y0163533D01*
X0188896Y0161934D02*
X0156921Y0161934D01*
X0157450Y0160336D02*
X0188450Y0160336D01*
X0188450Y0158737D02*
X0157450Y0158737D01*
X0156828Y0157139D02*
X0188989Y0157139D01*
X0195606Y0163533D02*
X0196650Y0163533D01*
X0196650Y0165131D02*
X0140257Y0165131D01*
X0141400Y0163989D02*
X0138705Y0166683D01*
X0134895Y0166683D01*
X0133095Y0164883D01*
X0128105Y0164883D01*
X0127006Y0165983D01*
X0125315Y0166683D01*
X0118285Y0166683D01*
X0116594Y0165983D01*
X0115300Y0164689D01*
X0114600Y0162998D01*
X0114600Y0161168D01*
X0115300Y0159478D01*
X0116594Y0158184D01*
X0118285Y0157483D01*
X0125315Y0157483D01*
X0127006Y0158184D01*
X0128105Y0159283D01*
X0133095Y0159283D01*
X0134895Y0157483D01*
X0138705Y0157483D01*
X0141400Y0160178D01*
X0141400Y0163989D01*
X0141400Y0163533D02*
X0150777Y0163533D01*
X0149179Y0161934D02*
X0141400Y0161934D01*
X0141400Y0160336D02*
X0148650Y0160336D01*
X0148650Y0158737D02*
X0139959Y0158737D01*
X0139565Y0155540D02*
X0150870Y0155540D01*
X0149272Y0157139D02*
X0081828Y0157139D01*
X0081123Y0156433D02*
X0083700Y0159011D01*
X0083700Y0160833D01*
X0079300Y0160833D01*
X0079300Y0156433D01*
X0079300Y0160833D01*
X0079300Y0160833D01*
X0074900Y0160833D01*
X0074900Y0159011D01*
X0077477Y0156433D01*
X0079300Y0156433D01*
X0081123Y0156433D01*
X0079300Y0157139D02*
X0079300Y0157139D01*
X0079300Y0158737D02*
X0079300Y0158737D01*
X0079300Y0160336D02*
X0079300Y0160336D01*
X0079300Y0160833D02*
X0079300Y0160833D01*
X0079300Y0160833D01*
X0078050Y0162083D01*
X0041800Y0162083D01*
X0038314Y0160336D02*
X0050286Y0160336D01*
X0051800Y0157083D02*
X0036800Y0157083D01*
X0035286Y0160336D02*
X0025303Y0160336D01*
X0025660Y0161934D02*
X0074900Y0161934D01*
X0074900Y0162656D02*
X0074900Y0160833D01*
X0079300Y0160833D01*
X0083700Y0160833D01*
X0083700Y0162656D01*
X0081123Y0165233D01*
X0079300Y0165233D01*
X0077477Y0165233D01*
X0074900Y0162656D01*
X0075777Y0163533D02*
X0025660Y0163533D01*
X0025286Y0165131D02*
X0077376Y0165131D01*
X0079300Y0165131D02*
X0079300Y0165131D01*
X0079300Y0165233D02*
X0079300Y0160833D01*
X0079300Y0160833D01*
X0079300Y0165233D01*
X0079300Y0163533D02*
X0079300Y0163533D01*
X0079300Y0161934D02*
X0079300Y0161934D01*
X0081224Y0165131D02*
X0085743Y0165131D01*
X0085300Y0164689D02*
X0084600Y0162998D01*
X0084600Y0161168D01*
X0085300Y0159478D01*
X0086594Y0158184D01*
X0088285Y0157483D01*
X0095315Y0157483D01*
X0097006Y0158184D01*
X0098300Y0159478D01*
X0099000Y0161168D01*
X0099000Y0162998D01*
X0098300Y0164689D01*
X0097006Y0165983D01*
X0095315Y0166683D01*
X0088285Y0166683D01*
X0086594Y0165983D01*
X0085300Y0164689D01*
X0084821Y0163533D02*
X0082823Y0163533D01*
X0083700Y0161934D02*
X0084600Y0161934D01*
X0084945Y0160336D02*
X0083700Y0160336D01*
X0083427Y0158737D02*
X0086041Y0158737D01*
X0086152Y0155540D02*
X0055040Y0155540D01*
X0055384Y0157139D02*
X0076772Y0157139D01*
X0075173Y0158737D02*
X0054994Y0158737D01*
X0053314Y0160336D02*
X0074900Y0160336D01*
X0064713Y0169927D02*
X0130234Y0169927D01*
X0131227Y0168933D02*
X0128650Y0171511D01*
X0128650Y0173333D01*
X0133050Y0173333D01*
X0133050Y0168933D01*
X0133050Y0173333D01*
X0133050Y0173333D01*
X0133050Y0173333D01*
X0133050Y0173333D01*
X0137450Y0173333D01*
X0137450Y0171511D01*
X0134873Y0168933D01*
X0133050Y0168933D01*
X0131227Y0168933D01*
X0133050Y0169927D02*
X0133050Y0169927D01*
X0133050Y0171526D02*
X0133050Y0171526D01*
X0133050Y0173124D02*
X0133050Y0173124D01*
X0133050Y0173333D02*
X0128650Y0173333D01*
X0128650Y0175156D01*
X0131227Y0177733D01*
X0133050Y0177733D01*
X0133050Y0173333D01*
X0137450Y0173333D01*
X0137450Y0175156D01*
X0134873Y0177733D01*
X0133050Y0177733D01*
X0133050Y0173333D01*
X0133050Y0173333D01*
X0133050Y0174723D02*
X0133050Y0174723D01*
X0133050Y0176321D02*
X0133050Y0176321D01*
X0136285Y0176321D02*
X0149815Y0176321D01*
X0148650Y0175156D02*
X0148650Y0173333D01*
X0148650Y0171511D01*
X0151227Y0168933D01*
X0153050Y0168933D01*
X0153050Y0173333D01*
X0153050Y0168933D01*
X0154873Y0168933D01*
X0157450Y0171511D01*
X0157450Y0173333D01*
X0153050Y0173333D01*
X0153050Y0173333D01*
X0148650Y0173333D01*
X0153050Y0173333D01*
X0153050Y0173333D01*
X0153050Y0173333D01*
X0157450Y0173333D01*
X0157450Y0175156D01*
X0154873Y0177733D01*
X0153050Y0177733D01*
X0151227Y0177733D01*
X0148650Y0175156D01*
X0148650Y0174723D02*
X0137450Y0174723D01*
X0137450Y0173124D02*
X0148650Y0173124D01*
X0148650Y0171526D02*
X0137450Y0171526D01*
X0135866Y0169927D02*
X0150234Y0169927D01*
X0153050Y0169927D02*
X0153050Y0169927D01*
X0153050Y0171526D02*
X0153050Y0171526D01*
X0153050Y0173124D02*
X0153050Y0173124D01*
X0153050Y0173333D02*
X0153050Y0177733D01*
X0153050Y0173333D01*
X0153050Y0173333D01*
X0153050Y0174723D02*
X0153050Y0174723D01*
X0153050Y0176321D02*
X0153050Y0176321D01*
X0156285Y0176321D02*
X0196650Y0176321D01*
X0196650Y0174723D02*
X0157450Y0174723D01*
X0157450Y0173124D02*
X0196650Y0173124D01*
X0196650Y0171526D02*
X0157450Y0171526D01*
X0155866Y0169927D02*
X0196650Y0169927D01*
X0196650Y0168329D02*
X0041752Y0168329D01*
X0042422Y0169927D02*
X0051907Y0169927D01*
X0054193Y0169927D02*
X0058887Y0169927D01*
X0061800Y0172083D02*
X0059950Y0173934D01*
X0053650Y0173934D01*
X0053050Y0173333D01*
X0049466Y0173124D02*
X0041836Y0173124D01*
X0042441Y0171526D02*
X0049919Y0171526D01*
X0056800Y0179583D02*
X0057450Y0180233D01*
X0069950Y0180233D01*
X0071800Y0182083D01*
X0074304Y0179518D02*
X0074700Y0179518D01*
X0075708Y0177920D02*
X0071596Y0177920D01*
X0070364Y0176321D02*
X0077307Y0176321D01*
X0081293Y0176321D02*
X0104807Y0176321D01*
X0104700Y0177920D02*
X0082892Y0177920D01*
X0079300Y0180833D02*
X0106800Y0180833D01*
X0109300Y0178333D01*
X0111800Y0182083D02*
X0116800Y0182083D01*
X0121800Y0177083D01*
X0119092Y0174723D02*
X0112195Y0174723D01*
X0113793Y0176321D02*
X0118236Y0176321D01*
X0117004Y0177920D02*
X0113900Y0177920D01*
X0111800Y0182083D02*
X0108050Y0185833D01*
X0104300Y0185833D01*
X0104300Y0189583D01*
X0106800Y0192083D01*
X0131800Y0192083D01*
X0133050Y0193333D01*
X0153050Y0193333D01*
X0188050Y0193333D01*
X0192650Y0193905D02*
X0196650Y0193905D01*
X0196650Y0195503D02*
X0192385Y0195503D01*
X0192650Y0192306D02*
X0196650Y0192306D01*
X0196650Y0190708D02*
X0191930Y0190708D01*
X0190331Y0189109D02*
X0196650Y0189109D01*
X0196650Y0187511D02*
X0190378Y0187511D01*
X0189955Y0187933D02*
X0186145Y0187933D01*
X0183450Y0185239D01*
X0183450Y0181428D01*
X0186145Y0178733D01*
X0189955Y0178733D01*
X0192650Y0181428D01*
X0192650Y0185239D01*
X0189955Y0187933D01*
X0191977Y0185912D02*
X0196650Y0185912D01*
X0196650Y0184314D02*
X0192650Y0184314D01*
X0192650Y0182715D02*
X0196650Y0182715D01*
X0196650Y0181117D02*
X0192339Y0181117D01*
X0190740Y0179518D02*
X0196650Y0179518D01*
X0196650Y0177920D02*
X0125333Y0177920D01*
X0125364Y0176321D02*
X0129815Y0176321D01*
X0128650Y0174723D02*
X0124508Y0174723D01*
X0128650Y0173124D02*
X0065248Y0173124D01*
X0065384Y0171526D02*
X0128650Y0171526D01*
X0124434Y0179518D02*
X0185360Y0179518D01*
X0183761Y0181117D02*
X0121727Y0181117D01*
X0120128Y0182715D02*
X0183450Y0182715D01*
X0183450Y0184314D02*
X0118700Y0184314D01*
X0118700Y0185912D02*
X0184123Y0185912D01*
X0185722Y0187511D02*
X0118700Y0187511D01*
X0117247Y0189109D02*
X0130769Y0189109D01*
X0135331Y0189109D02*
X0151228Y0189109D01*
X0154872Y0189109D02*
X0185769Y0189109D01*
X0196650Y0166730D02*
X0039808Y0166730D01*
X0038129Y0166730D02*
X0038129Y0166730D01*
X0038129Y0166409D02*
X0038129Y0170784D01*
X0038129Y0170784D01*
X0038129Y0166409D01*
X0038129Y0168329D02*
X0038129Y0168329D01*
X0038129Y0169927D02*
X0038129Y0169927D01*
X0038129Y0177083D02*
X0066800Y0177083D01*
X0069508Y0174723D02*
X0106405Y0174723D01*
X0097857Y0165131D02*
X0115743Y0165131D01*
X0114821Y0163533D02*
X0098779Y0163533D01*
X0099000Y0161934D02*
X0114600Y0161934D01*
X0114945Y0160336D02*
X0098655Y0160336D01*
X0097559Y0158737D02*
X0116041Y0158737D01*
X0117511Y0156161D02*
X0116894Y0155847D01*
X0116334Y0155439D01*
X0115844Y0154950D01*
X0115437Y0154389D01*
X0115122Y0153772D01*
X0114908Y0153114D01*
X0114800Y0152430D01*
X0114800Y0152083D01*
X0114800Y0151737D01*
X0114908Y0151053D01*
X0115122Y0150394D01*
X0115437Y0149777D01*
X0115844Y0149217D01*
X0116334Y0148727D01*
X0116894Y0148320D01*
X0117511Y0148006D01*
X0118170Y0147792D01*
X0118854Y0147683D01*
X0121800Y0147683D01*
X0124746Y0147683D01*
X0125430Y0147792D01*
X0126089Y0148006D01*
X0126706Y0148320D01*
X0127266Y0148727D01*
X0127756Y0149217D01*
X0128163Y0149777D01*
X0128478Y0150394D01*
X0128692Y0151053D01*
X0128800Y0151737D01*
X0128800Y0152083D01*
X0121800Y0152083D01*
X0121800Y0147683D01*
X0121800Y0152083D01*
X0121800Y0152083D01*
X0114800Y0152083D01*
X0121800Y0152083D01*
X0121800Y0152083D01*
X0121800Y0152083D01*
X0128800Y0152083D01*
X0128800Y0152430D01*
X0128692Y0153114D01*
X0128478Y0153772D01*
X0128163Y0154389D01*
X0127756Y0154950D01*
X0127266Y0155439D01*
X0126706Y0155847D01*
X0126089Y0156161D01*
X0125430Y0156375D01*
X0124746Y0156483D01*
X0121800Y0156483D01*
X0118854Y0156483D01*
X0118170Y0156375D01*
X0117511Y0156161D01*
X0116473Y0155540D02*
X0097448Y0155540D01*
X0098609Y0153942D02*
X0115209Y0153942D01*
X0114800Y0152343D02*
X0099000Y0152343D01*
X0098825Y0150745D02*
X0115008Y0150745D01*
X0115914Y0149146D02*
X0097968Y0149146D01*
X0097039Y0145949D02*
X0116561Y0145949D01*
X0115160Y0144351D02*
X0098440Y0144351D01*
X0099000Y0142752D02*
X0114600Y0142752D01*
X0114606Y0141154D02*
X0098994Y0141154D01*
X0098332Y0139555D02*
X0115268Y0139555D01*
X0117142Y0137957D02*
X0096458Y0137957D01*
X0096100Y0136358D02*
X0117500Y0136358D01*
X0115371Y0134760D02*
X0098229Y0134760D01*
X0098933Y0133161D02*
X0114667Y0133161D01*
X0114600Y0131563D02*
X0099000Y0131563D01*
X0098501Y0129964D02*
X0115099Y0129964D01*
X0116412Y0128366D02*
X0109477Y0128366D01*
X0111076Y0126767D02*
X0123156Y0126767D01*
X0126800Y0127083D02*
X0121800Y0132083D01*
X0126800Y0127083D02*
X0194300Y0127083D01*
X0194300Y0117083D02*
X0126800Y0117083D01*
X0121800Y0122083D01*
X0115780Y0125169D02*
X0112674Y0125169D01*
X0114273Y0123570D02*
X0114837Y0123570D01*
X0111800Y0117083D02*
X0106800Y0122083D01*
X0091800Y0122083D01*
X0085099Y0129964D02*
X0078641Y0129964D01*
X0080239Y0131563D02*
X0084600Y0131563D01*
X0084667Y0133161D02*
X0081838Y0133161D01*
X0084545Y0134760D02*
X0085371Y0134760D01*
X0085379Y0136358D02*
X0087500Y0136358D01*
X0087142Y0137957D02*
X0085318Y0137957D01*
X0081800Y0137083D02*
X0076800Y0132083D01*
X0061800Y0132083D01*
X0051800Y0122083D01*
X0056800Y0122083D02*
X0061800Y0127083D01*
X0106800Y0127083D01*
X0121800Y0112083D01*
X0138050Y0112083D01*
X0134444Y0109184D02*
X0128006Y0109184D01*
X0128105Y0109283D02*
X0134345Y0109283D01*
X0136145Y0107483D01*
X0139955Y0107483D01*
X0142650Y0110178D01*
X0142650Y0113989D01*
X0142355Y0114283D01*
X0189290Y0114283D01*
X0189468Y0113855D01*
X0191071Y0112251D01*
X0191476Y0112083D01*
X0191071Y0111916D01*
X0189468Y0110312D01*
X0189290Y0109883D01*
X0161243Y0109883D01*
X0160214Y0109457D01*
X0156424Y0105668D01*
X0156087Y0105668D01*
X0154770Y0105122D01*
X0153761Y0104114D01*
X0153216Y0102796D01*
X0153216Y0101370D01*
X0153761Y0100053D01*
X0154770Y0099045D01*
X0156087Y0098499D01*
X0157513Y0098499D01*
X0158830Y0099045D01*
X0159839Y0100053D01*
X0160384Y0101370D01*
X0160384Y0101708D01*
X0162960Y0104283D01*
X0189290Y0104283D01*
X0189468Y0103855D01*
X0191071Y0102251D01*
X0191476Y0102083D01*
X0191071Y0101916D01*
X0189468Y0100312D01*
X0189290Y0099883D01*
X0166243Y0099883D01*
X0165214Y0099457D01*
X0161424Y0095668D01*
X0161087Y0095668D01*
X0159770Y0095122D01*
X0158761Y0094114D01*
X0158216Y0092796D01*
X0158216Y0091370D01*
X0158761Y0090053D01*
X0159770Y0089045D01*
X0161087Y0088499D01*
X0162513Y0088499D01*
X0163830Y0089045D01*
X0164839Y0090053D01*
X0165384Y0091370D01*
X0165384Y0091708D01*
X0167960Y0094283D01*
X0189290Y0094283D01*
X0189468Y0093855D01*
X0191071Y0092251D01*
X0191476Y0092083D01*
X0191071Y0091916D01*
X0189468Y0090312D01*
X0189290Y0089883D01*
X0171243Y0089883D01*
X0170214Y0089457D01*
X0166424Y0085668D01*
X0166087Y0085668D01*
X0164770Y0085122D01*
X0163761Y0084114D01*
X0163216Y0082796D01*
X0163216Y0081370D01*
X0163761Y0080053D01*
X0163931Y0079883D01*
X0155823Y0079883D01*
X0156200Y0080261D01*
X0156200Y0082083D01*
X0151800Y0082083D01*
X0147400Y0082083D01*
X0147400Y0080261D01*
X0147777Y0079883D01*
X0135868Y0079883D01*
X0136400Y0081168D01*
X0136400Y0082998D01*
X0135700Y0084689D01*
X0134406Y0085983D01*
X0132715Y0086683D01*
X0130885Y0086683D01*
X0129194Y0085983D01*
X0128100Y0084889D01*
X0127006Y0085983D01*
X0125315Y0086683D01*
X0118285Y0086683D01*
X0116594Y0085983D01*
X0115300Y0084689D01*
X0114600Y0082998D01*
X0114600Y0081168D01*
X0114995Y0080215D01*
X0114770Y0080122D01*
X0113761Y0079114D01*
X0113216Y0077796D01*
X0113216Y0076370D01*
X0113761Y0075053D01*
X0114770Y0074045D01*
X0115176Y0073877D01*
X0115122Y0073772D01*
X0114908Y0073114D01*
X0114800Y0072430D01*
X0114800Y0072083D01*
X0114800Y0071737D01*
X0114908Y0071053D01*
X0115122Y0070394D01*
X0115383Y0069883D01*
X0114069Y0069883D01*
X0113830Y0070122D01*
X0112513Y0070668D01*
X0111087Y0070668D01*
X0109770Y0070122D01*
X0108761Y0069114D01*
X0108216Y0067796D01*
X0108216Y0066370D01*
X0108761Y0065053D01*
X0109770Y0064045D01*
X0111087Y0063499D01*
X0112513Y0063499D01*
X0113830Y0064045D01*
X0114069Y0064283D01*
X0115132Y0064283D01*
X0114600Y0062998D01*
X0114600Y0061168D01*
X0114995Y0060215D01*
X0114770Y0060122D01*
X0114300Y0059652D01*
X0113830Y0060122D01*
X0112513Y0060668D01*
X0112176Y0060668D01*
X0108386Y0064457D01*
X0107357Y0064883D01*
X0098105Y0064883D01*
X0097006Y0065983D01*
X0095315Y0066683D01*
X0088285Y0066683D01*
X0086594Y0065983D01*
X0085495Y0064883D01*
X0029069Y0064883D01*
X0028830Y0065122D01*
X0027513Y0065668D01*
X0026087Y0065668D01*
X0024770Y0065122D01*
X0023761Y0064114D01*
X0023216Y0062796D01*
X0023216Y0061370D01*
X0023761Y0060053D01*
X0024770Y0059045D01*
X0026087Y0058499D01*
X0027513Y0058499D01*
X0028830Y0059045D01*
X0029069Y0059283D01*
X0085495Y0059283D01*
X0086594Y0058184D01*
X0088285Y0057483D01*
X0095315Y0057483D01*
X0097006Y0058184D01*
X0098105Y0059283D01*
X0105640Y0059283D01*
X0108216Y0056708D01*
X0108216Y0056370D01*
X0108761Y0055053D01*
X0109770Y0054045D01*
X0111087Y0053499D01*
X0112513Y0053499D01*
X0113830Y0054045D01*
X0114300Y0054514D01*
X0114770Y0054045D01*
X0114995Y0053952D01*
X0114600Y0052998D01*
X0114600Y0051168D01*
X0115300Y0049478D01*
X0116594Y0048184D01*
X0118285Y0047483D01*
X0125315Y0047483D01*
X0127006Y0048184D01*
X0128105Y0049283D01*
X0157357Y0049283D01*
X0158386Y0049710D01*
X0159174Y0050497D01*
X0162176Y0053499D01*
X0162513Y0053499D01*
X0163830Y0054045D01*
X0164839Y0055053D01*
X0165384Y0056370D01*
X0165384Y0057796D01*
X0164839Y0059114D01*
X0163830Y0060122D01*
X0162513Y0060668D01*
X0161087Y0060668D01*
X0159770Y0060122D01*
X0158761Y0059114D01*
X0158216Y0057796D01*
X0158216Y0057459D01*
X0155640Y0054883D01*
X0154669Y0054883D01*
X0154839Y0055053D01*
X0155384Y0056370D01*
X0155384Y0057796D01*
X0154839Y0059114D01*
X0153830Y0060122D01*
X0153808Y0060131D01*
X0154174Y0060497D01*
X0157176Y0063499D01*
X0157513Y0063499D01*
X0158830Y0064045D01*
X0159839Y0065053D01*
X0160384Y0066370D01*
X0160384Y0067796D01*
X0159839Y0069114D01*
X0159669Y0069283D01*
X0169531Y0069283D01*
X0169770Y0069045D01*
X0171087Y0068499D01*
X0172513Y0068499D01*
X0173830Y0069045D01*
X0174839Y0070053D01*
X0175384Y0071370D01*
X0175384Y0071708D01*
X0177960Y0074283D01*
X0189290Y0074283D01*
X0189468Y0073855D01*
X0191071Y0072251D01*
X0191764Y0071964D01*
X0191417Y0071787D01*
X0190717Y0071278D01*
X0190105Y0070666D01*
X0189596Y0069966D01*
X0189203Y0069195D01*
X0188935Y0068371D01*
X0188800Y0067516D01*
X0188800Y0067283D01*
X0194100Y0067283D01*
X0194100Y0066883D01*
X0194500Y0066883D01*
X0194500Y0061583D01*
X0194733Y0061583D01*
X0195588Y0061719D01*
X0196411Y0061986D01*
X0196650Y0062108D01*
X0196650Y0052279D01*
X0195434Y0052783D01*
X0193166Y0052783D01*
X0191071Y0051916D01*
X0189468Y0050312D01*
X0188600Y0048217D01*
X0188600Y0045950D01*
X0189468Y0043855D01*
X0191071Y0042251D01*
X0191476Y0042083D01*
X0191071Y0041916D01*
X0189468Y0040312D01*
X0188600Y0038217D01*
X0188600Y0035950D01*
X0188778Y0035521D01*
X0183140Y0029883D01*
X0168560Y0029883D01*
X0169174Y0030497D01*
X0172176Y0033499D01*
X0172513Y0033499D01*
X0173830Y0034045D01*
X0174839Y0035053D01*
X0175384Y0036370D01*
X0175384Y0037796D01*
X0174839Y0039114D01*
X0173830Y0040122D01*
X0172513Y0040668D01*
X0171087Y0040668D01*
X0169770Y0040122D01*
X0168761Y0039114D01*
X0168216Y0037796D01*
X0168216Y0037459D01*
X0165640Y0034883D01*
X0144669Y0034883D01*
X0144839Y0035053D01*
X0145384Y0036370D01*
X0145384Y0037796D01*
X0144839Y0039114D01*
X0144669Y0039283D01*
X0162357Y0039283D01*
X0163386Y0039710D01*
X0164174Y0040497D01*
X0167176Y0043499D01*
X0167513Y0043499D01*
X0168830Y0044045D01*
X0169839Y0045053D01*
X0170384Y0046370D01*
X0170384Y0047796D01*
X0169839Y0049114D01*
X0168830Y0050122D01*
X0167513Y0050668D01*
X0166087Y0050668D01*
X0164770Y0050122D01*
X0163761Y0049114D01*
X0163216Y0047796D01*
X0163216Y0047459D01*
X0160640Y0044883D01*
X0128105Y0044883D01*
X0127006Y0045983D01*
X0125315Y0046683D01*
X0118285Y0046683D01*
X0116594Y0045983D01*
X0115300Y0044689D01*
X0114600Y0042998D01*
X0114600Y0041168D01*
X0115132Y0039883D01*
X0111243Y0039883D01*
X0110214Y0039457D01*
X0109426Y0038669D01*
X0106800Y0036043D01*
X0103386Y0039457D01*
X0102357Y0039883D01*
X0098468Y0039883D01*
X0099000Y0041168D01*
X0099000Y0042998D01*
X0098300Y0044689D01*
X0097006Y0045983D01*
X0095315Y0046683D01*
X0088285Y0046683D01*
X0086594Y0045983D01*
X0085495Y0044883D01*
X0084255Y0044883D01*
X0082455Y0046683D01*
X0078645Y0046683D01*
X0076845Y0044883D01*
X0062960Y0044883D01*
X0060384Y0047459D01*
X0060384Y0047796D01*
X0059839Y0049114D01*
X0059669Y0049283D01*
X0085495Y0049283D01*
X0086594Y0048184D01*
X0088285Y0047483D01*
X0095315Y0047483D01*
X0097006Y0048184D01*
X0098300Y0049478D01*
X0099000Y0051168D01*
X0099000Y0052998D01*
X0098300Y0054689D01*
X0097006Y0055983D01*
X0095315Y0056683D01*
X0088285Y0056683D01*
X0086594Y0055983D01*
X0085495Y0054883D01*
X0011243Y0054883D01*
X0010214Y0054457D01*
X0009426Y0053669D01*
X0008073Y0052316D01*
X0007455Y0052933D01*
X0003800Y0052933D01*
X0003800Y0062465D01*
X0003917Y0062379D01*
X0004689Y0061986D01*
X0005512Y0061719D01*
X0006367Y0061583D01*
X0006600Y0061583D01*
X0006600Y0066883D01*
X0007000Y0066883D01*
X0007000Y0061583D01*
X0007233Y0061583D01*
X0008088Y0061719D01*
X0008911Y0061986D01*
X0009683Y0062379D01*
X0010383Y0062888D01*
X0010995Y0063500D01*
X0011504Y0064201D01*
X0011897Y0064972D01*
X0012165Y0065795D01*
X0012300Y0066650D01*
X0012300Y0066883D01*
X0007000Y0066883D01*
X0007000Y0067283D01*
X0012300Y0067283D01*
X0012300Y0067516D01*
X0012165Y0068371D01*
X0011897Y0069195D01*
X0011504Y0069966D01*
X0010995Y0070666D01*
X0010383Y0071278D01*
X0009683Y0071787D01*
X0009336Y0071964D01*
X0010029Y0072251D01*
X0011632Y0073855D01*
X0011810Y0074283D01*
X0050640Y0074283D01*
X0053216Y0071708D01*
X0053216Y0071370D01*
X0053761Y0070053D01*
X0054770Y0069045D01*
X0056087Y0068499D01*
X0057513Y0068499D01*
X0058830Y0069045D01*
X0059839Y0070053D01*
X0060384Y0071370D01*
X0060384Y0072796D01*
X0059839Y0074114D01*
X0058830Y0075122D01*
X0057513Y0075668D01*
X0057176Y0075668D01*
X0054174Y0078669D01*
X0053386Y0079457D01*
X0052357Y0079883D01*
X0011810Y0079883D01*
X0011632Y0080312D01*
X0010029Y0081916D01*
X0009624Y0082083D01*
X0010029Y0082251D01*
X0011632Y0083855D01*
X0012500Y0085950D01*
X0012500Y0088217D01*
X0011632Y0090312D01*
X0010029Y0091916D01*
X0009624Y0092083D01*
X0010029Y0092251D01*
X0011632Y0093855D01*
X0012500Y0095950D01*
X0012500Y0098217D01*
X0012058Y0099283D01*
X0078931Y0099283D01*
X0078761Y0099114D01*
X0078216Y0097796D01*
X0078216Y0096370D01*
X0078761Y0095053D01*
X0079770Y0094045D01*
X0081087Y0093499D01*
X0082513Y0093499D01*
X0083830Y0094045D01*
X0084069Y0094283D01*
X0085383Y0094283D01*
X0085122Y0093772D01*
X0084908Y0093114D01*
X0084800Y0092430D01*
X0084800Y0092083D01*
X0084800Y0091737D01*
X0084908Y0091053D01*
X0085122Y0090394D01*
X0085437Y0089777D01*
X0085844Y0089217D01*
X0086334Y0088727D01*
X0086894Y0088320D01*
X0087511Y0088006D01*
X0088170Y0087792D01*
X0088854Y0087683D01*
X0091800Y0087683D01*
X0094746Y0087683D01*
X0095430Y0087792D01*
X0096089Y0088006D01*
X0096706Y0088320D01*
X0097266Y0088727D01*
X0097756Y0089217D01*
X0098163Y0089777D01*
X0098478Y0090394D01*
X0098692Y0091053D01*
X0098800Y0091737D01*
X0098800Y0092083D01*
X0091800Y0092083D01*
X0091800Y0087683D01*
X0091800Y0092083D01*
X0091800Y0092083D01*
X0091800Y0092083D01*
X0084800Y0092083D01*
X0091800Y0092083D01*
X0091800Y0092083D01*
X0098800Y0092083D01*
X0098800Y0092430D01*
X0098692Y0093114D01*
X0098478Y0093772D01*
X0098217Y0094283D01*
X0115132Y0094283D01*
X0114600Y0092998D01*
X0114600Y0091168D01*
X0115300Y0089478D01*
X0116594Y0088184D01*
X0118285Y0087483D01*
X0125315Y0087483D01*
X0127006Y0088184D01*
X0128300Y0089478D01*
X0129000Y0091168D01*
X0129000Y0092998D01*
X0128300Y0094689D01*
X0127006Y0095983D01*
X0125315Y0096683D01*
X0121160Y0096683D01*
X0120360Y0097483D01*
X0125315Y0097483D01*
X0127006Y0098184D01*
X0128300Y0099478D01*
X0129000Y0101168D01*
X0129000Y0102998D01*
X0128300Y0104689D01*
X0127006Y0105983D01*
X0125315Y0106683D01*
X0121160Y0106683D01*
X0120360Y0107483D01*
X0125315Y0107483D01*
X0127006Y0108184D01*
X0128105Y0109283D01*
X0125561Y0107585D02*
X0136043Y0107585D01*
X0136227Y0106483D02*
X0133650Y0103906D01*
X0133650Y0102083D01*
X0133650Y0100261D01*
X0136227Y0097683D01*
X0138050Y0097683D01*
X0138050Y0102083D01*
X0138050Y0097683D01*
X0139873Y0097683D01*
X0142450Y0100261D01*
X0142450Y0102083D01*
X0138050Y0102083D01*
X0138050Y0102083D01*
X0133650Y0102083D01*
X0138050Y0102083D01*
X0138050Y0102083D01*
X0138050Y0102083D01*
X0142450Y0102083D01*
X0142450Y0103906D01*
X0139873Y0106483D01*
X0138050Y0106483D01*
X0136227Y0106483D01*
X0135731Y0105987D02*
X0126997Y0105987D01*
X0128424Y0104388D02*
X0134132Y0104388D01*
X0133650Y0102790D02*
X0129000Y0102790D01*
X0129000Y0101191D02*
X0133650Y0101191D01*
X0134318Y0099593D02*
X0128347Y0099593D01*
X0126548Y0097994D02*
X0135917Y0097994D01*
X0138050Y0097994D02*
X0138050Y0097994D01*
X0138050Y0099593D02*
X0138050Y0099593D01*
X0138050Y0101191D02*
X0138050Y0101191D01*
X0138050Y0102083D02*
X0138050Y0106483D01*
X0138050Y0102083D01*
X0138050Y0102083D01*
X0138050Y0102790D02*
X0138050Y0102790D01*
X0138050Y0104388D02*
X0138050Y0104388D01*
X0138050Y0105987D02*
X0138050Y0105987D01*
X0140369Y0105987D02*
X0156743Y0105987D01*
X0158342Y0107585D02*
X0140057Y0107585D01*
X0141656Y0109184D02*
X0159940Y0109184D01*
X0161800Y0107083D02*
X0156800Y0102083D01*
X0159378Y0099593D02*
X0165541Y0099593D01*
X0163751Y0097994D02*
X0140183Y0097994D01*
X0141782Y0099593D02*
X0154222Y0099593D01*
X0153290Y0101191D02*
X0142450Y0101191D01*
X0142450Y0102790D02*
X0153216Y0102790D01*
X0154036Y0104388D02*
X0141968Y0104388D01*
X0142650Y0110782D02*
X0189938Y0110782D01*
X0190942Y0112381D02*
X0142650Y0112381D01*
X0142650Y0113979D02*
X0189416Y0113979D01*
X0194300Y0107083D02*
X0161800Y0107083D01*
X0161466Y0102790D02*
X0190533Y0102790D01*
X0190347Y0101191D02*
X0160310Y0101191D01*
X0162152Y0096395D02*
X0126010Y0096395D01*
X0128192Y0094797D02*
X0159445Y0094797D01*
X0158382Y0093198D02*
X0128917Y0093198D01*
X0129000Y0091600D02*
X0158216Y0091600D01*
X0158813Y0090001D02*
X0128517Y0090001D01*
X0127225Y0088403D02*
X0169160Y0088403D01*
X0167561Y0086804D02*
X0086039Y0086804D01*
X0086782Y0086061D02*
X0079636Y0093207D01*
X0078607Y0093633D01*
X0078060Y0093633D01*
X0077882Y0094062D01*
X0076279Y0095666D01*
X0074184Y0096533D01*
X0071916Y0096533D01*
X0069821Y0095666D01*
X0068218Y0094062D01*
X0067350Y0091967D01*
X0067350Y0089700D01*
X0068218Y0087605D01*
X0069821Y0086001D01*
X0070514Y0085714D01*
X0070167Y0085537D01*
X0069467Y0085028D01*
X0068855Y0084416D01*
X0068346Y0083716D01*
X0067953Y0082945D01*
X0067685Y0082121D01*
X0067550Y0081266D01*
X0067550Y0081033D01*
X0072850Y0081033D01*
X0072850Y0080633D01*
X0067550Y0080633D01*
X0067550Y0080400D01*
X0067685Y0079545D01*
X0067953Y0078722D01*
X0068346Y0077951D01*
X0068855Y0077250D01*
X0069467Y0076638D01*
X0070167Y0076129D01*
X0070514Y0075953D01*
X0069821Y0075666D01*
X0068218Y0074062D01*
X0067350Y0071967D01*
X0067350Y0069700D01*
X0068218Y0067605D01*
X0069821Y0066001D01*
X0071916Y0065133D01*
X0074184Y0065133D01*
X0076279Y0066001D01*
X0077882Y0067605D01*
X0078060Y0068033D01*
X0086957Y0068033D01*
X0088285Y0067483D01*
X0095315Y0067483D01*
X0097006Y0068184D01*
X0098300Y0069478D01*
X0099000Y0071168D01*
X0099000Y0072998D01*
X0098300Y0074689D01*
X0097006Y0075983D01*
X0095315Y0076683D01*
X0088285Y0076683D01*
X0086594Y0075983D01*
X0085300Y0074689D01*
X0084863Y0073633D01*
X0078060Y0073633D01*
X0077882Y0074062D01*
X0076279Y0075666D01*
X0075586Y0075953D01*
X0075933Y0076129D01*
X0076633Y0076638D01*
X0077245Y0077250D01*
X0077754Y0077951D01*
X0078147Y0078722D01*
X0078415Y0079545D01*
X0078550Y0080400D01*
X0078550Y0080633D01*
X0073250Y0080633D01*
X0073250Y0081033D01*
X0078550Y0081033D01*
X0078550Y0081266D01*
X0078415Y0082121D01*
X0078147Y0082945D01*
X0077754Y0083716D01*
X0077245Y0084416D01*
X0076633Y0085028D01*
X0075933Y0085537D01*
X0075586Y0085714D01*
X0076279Y0086001D01*
X0077601Y0087323D01*
X0084426Y0080497D01*
X0085197Y0079726D01*
X0085300Y0079478D01*
X0086594Y0078184D01*
X0088285Y0077483D01*
X0095315Y0077483D01*
X0097006Y0078184D01*
X0098300Y0079478D01*
X0099000Y0081168D01*
X0099000Y0082998D01*
X0098300Y0084689D01*
X0097006Y0085983D01*
X0095315Y0086683D01*
X0088285Y0086683D01*
X0086782Y0086061D01*
X0086780Y0088403D02*
X0084440Y0088403D01*
X0085323Y0090001D02*
X0082842Y0090001D01*
X0081243Y0091600D02*
X0084822Y0091600D01*
X0084936Y0093198D02*
X0079645Y0093198D01*
X0079017Y0094797D02*
X0077147Y0094797D01*
X0078216Y0096395D02*
X0074517Y0096395D01*
X0071583Y0096395D02*
X0012500Y0096395D01*
X0012500Y0097994D02*
X0078298Y0097994D01*
X0081800Y0097083D02*
X0116800Y0097083D01*
X0121800Y0092083D01*
X0116375Y0088403D02*
X0096820Y0088403D01*
X0098277Y0090001D02*
X0115083Y0090001D01*
X0114600Y0091600D02*
X0098778Y0091600D01*
X0098664Y0093198D02*
X0114683Y0093198D01*
X0115817Y0085206D02*
X0097783Y0085206D01*
X0098748Y0083607D02*
X0114852Y0083607D01*
X0114600Y0082009D02*
X0099000Y0082009D01*
X0098686Y0080410D02*
X0114914Y0080410D01*
X0113636Y0078812D02*
X0097634Y0078812D01*
X0097374Y0075615D02*
X0113529Y0075615D01*
X0113216Y0077213D02*
X0077208Y0077213D01*
X0076329Y0075615D02*
X0086226Y0075615D01*
X0085022Y0074016D02*
X0077901Y0074016D01*
X0078176Y0078812D02*
X0085966Y0078812D01*
X0084513Y0080410D02*
X0078550Y0080410D01*
X0078432Y0082009D02*
X0082915Y0082009D01*
X0081316Y0083607D02*
X0077809Y0083607D01*
X0076389Y0085206D02*
X0079718Y0085206D01*
X0078119Y0086804D02*
X0077082Y0086804D01*
X0078050Y0090833D02*
X0073050Y0090833D01*
X0069018Y0086804D02*
X0012500Y0086804D01*
X0012423Y0088403D02*
X0067887Y0088403D01*
X0067350Y0090001D02*
X0011761Y0090001D01*
X0010344Y0091600D02*
X0067350Y0091600D01*
X0067860Y0093198D02*
X0010976Y0093198D01*
X0012023Y0094797D02*
X0068953Y0094797D01*
X0069711Y0085206D02*
X0012192Y0085206D01*
X0011385Y0083607D02*
X0068291Y0083607D01*
X0067668Y0082009D02*
X0009803Y0082009D01*
X0011534Y0080410D02*
X0067550Y0080410D01*
X0067924Y0078812D02*
X0054031Y0078812D01*
X0055630Y0077213D02*
X0068892Y0077213D01*
X0069770Y0075615D02*
X0057640Y0075615D01*
X0059879Y0074016D02*
X0068199Y0074016D01*
X0067537Y0072418D02*
X0060384Y0072418D01*
X0060156Y0070819D02*
X0067350Y0070819D01*
X0067548Y0069221D02*
X0059006Y0069221D01*
X0056800Y0072083D02*
X0051800Y0077083D01*
X0006800Y0077083D01*
X0010196Y0072418D02*
X0052506Y0072418D01*
X0053444Y0070819D02*
X0010842Y0070819D01*
X0011884Y0069221D02*
X0054594Y0069221D01*
X0050907Y0074016D02*
X0011699Y0074016D01*
X0012283Y0067622D02*
X0068210Y0067622D01*
X0069799Y0066024D02*
X0012201Y0066024D01*
X0011618Y0064425D02*
X0024073Y0064425D01*
X0023228Y0062827D02*
X0010298Y0062827D01*
X0007000Y0062827D02*
X0006600Y0062827D01*
X0006600Y0064425D02*
X0007000Y0064425D01*
X0007000Y0066024D02*
X0006600Y0066024D01*
X0003800Y0061228D02*
X0023275Y0061228D01*
X0024185Y0059630D02*
X0003800Y0059630D01*
X0003800Y0058031D02*
X0086962Y0058031D01*
X0087680Y0056433D02*
X0003800Y0056433D01*
X0003800Y0054834D02*
X0011124Y0054834D01*
X0008993Y0053236D02*
X0003800Y0053236D01*
X0005550Y0048333D02*
X0008050Y0048333D01*
X0011800Y0052083D01*
X0091800Y0052083D01*
X0095920Y0056433D02*
X0108216Y0056433D01*
X0108980Y0054834D02*
X0098154Y0054834D01*
X0098902Y0053236D02*
X0114698Y0053236D01*
X0114600Y0051637D02*
X0099000Y0051637D01*
X0098532Y0050039D02*
X0115068Y0050039D01*
X0116338Y0048440D02*
X0097262Y0048440D01*
X0097746Y0045243D02*
X0115854Y0045243D01*
X0114868Y0043645D02*
X0098732Y0043645D01*
X0099000Y0042046D02*
X0114600Y0042046D01*
X0114899Y0040448D02*
X0098701Y0040448D01*
X0101800Y0037083D02*
X0106800Y0032083D01*
X0111800Y0037083D01*
X0141800Y0037083D01*
X0145087Y0035652D02*
X0166409Y0035652D01*
X0168007Y0037251D02*
X0145384Y0037251D01*
X0144948Y0038849D02*
X0168652Y0038849D01*
X0170556Y0040448D02*
X0164124Y0040448D01*
X0165723Y0042046D02*
X0191386Y0042046D01*
X0189678Y0043645D02*
X0167864Y0043645D01*
X0169917Y0045243D02*
X0188893Y0045243D01*
X0188600Y0046842D02*
X0170384Y0046842D01*
X0170118Y0048440D02*
X0188692Y0048440D01*
X0189355Y0050039D02*
X0168914Y0050039D01*
X0166800Y0047083D02*
X0161800Y0042083D01*
X0121800Y0042083D01*
X0127746Y0045243D02*
X0161000Y0045243D01*
X0162599Y0046842D02*
X0061001Y0046842D01*
X0060118Y0048440D02*
X0086338Y0048440D01*
X0085854Y0045243D02*
X0083896Y0045243D01*
X0080550Y0042083D02*
X0061800Y0042083D01*
X0056800Y0047083D01*
X0051800Y0047083D02*
X0061800Y0037083D01*
X0101800Y0037083D01*
X0103994Y0038849D02*
X0109606Y0038849D01*
X0108007Y0037251D02*
X0105593Y0037251D01*
X0100870Y0034054D02*
X0098563Y0034054D01*
X0098468Y0034283D02*
X0100640Y0034283D01*
X0103216Y0031708D01*
X0103216Y0031370D01*
X0103761Y0030053D01*
X0104770Y0029045D01*
X0106087Y0028499D01*
X0107513Y0028499D01*
X0108830Y0029045D01*
X0109839Y0030053D01*
X0110384Y0031370D01*
X0110384Y0031708D01*
X0112960Y0034283D01*
X0115132Y0034283D01*
X0114600Y0032998D01*
X0114600Y0031168D01*
X0115300Y0029478D01*
X0116594Y0028184D01*
X0118285Y0027483D01*
X0125315Y0027483D01*
X0127006Y0028184D01*
X0128105Y0029283D01*
X0158931Y0029283D01*
X0158761Y0029114D01*
X0158216Y0027796D01*
X0158216Y0026370D01*
X0158761Y0025053D01*
X0158931Y0024883D01*
X0104069Y0024883D01*
X0103830Y0025122D01*
X0102513Y0025668D01*
X0101087Y0025668D01*
X0099770Y0025122D01*
X0098761Y0024114D01*
X0098216Y0022796D01*
X0098216Y0022459D01*
X0096890Y0021133D01*
X0081755Y0021133D01*
X0079955Y0022933D01*
X0076145Y0022933D01*
X0073450Y0020239D01*
X0073450Y0016428D01*
X0076145Y0013733D01*
X0079955Y0013733D01*
X0081755Y0015533D01*
X0098607Y0015533D01*
X0099636Y0015960D01*
X0102176Y0018499D01*
X0102513Y0018499D01*
X0103830Y0019045D01*
X0104069Y0019283D01*
X0113450Y0019283D01*
X0113450Y0016428D01*
X0116145Y0013733D01*
X0119955Y0013733D01*
X0121755Y0015533D01*
X0125162Y0015533D01*
X0124467Y0015028D01*
X0123855Y0014416D01*
X0123346Y0013716D01*
X0122953Y0012945D01*
X0122685Y0012121D01*
X0122550Y0011266D01*
X0122550Y0011033D01*
X0127850Y0011033D01*
X0127850Y0010633D01*
X0128250Y0010633D01*
X0128250Y0005333D01*
X0128483Y0005333D01*
X0129338Y0005469D01*
X0130161Y0005736D01*
X0130933Y0006129D01*
X0131633Y0006638D01*
X0132245Y0007250D01*
X0132754Y0007951D01*
X0132931Y0008298D01*
X0133218Y0007605D01*
X0134821Y0006001D01*
X0136916Y0005133D01*
X0139184Y0005133D01*
X0141279Y0006001D01*
X0142882Y0007605D01*
X0143050Y0008010D01*
X0143218Y0007605D01*
X0144821Y0006001D01*
X0146916Y0005133D01*
X0149184Y0005133D01*
X0151279Y0006001D01*
X0152882Y0007605D01*
X0153750Y0009700D01*
X0153750Y0011967D01*
X0152882Y0014062D01*
X0151411Y0015533D01*
X0151890Y0015533D01*
X0155028Y0012396D01*
X0154850Y0011967D01*
X0154850Y0009700D01*
X0155718Y0007605D01*
X0157321Y0006001D01*
X0159416Y0005133D01*
X0161684Y0005133D01*
X0163779Y0006001D01*
X0165382Y0007605D01*
X0165550Y0008010D01*
X0165718Y0007605D01*
X0167321Y0006001D01*
X0169416Y0005133D01*
X0171684Y0005133D01*
X0173779Y0006001D01*
X0175382Y0007605D01*
X0175669Y0008298D01*
X0175846Y0007951D01*
X0176355Y0007250D01*
X0176967Y0006638D01*
X0177667Y0006129D01*
X0178439Y0005736D01*
X0179262Y0005469D01*
X0180117Y0005333D01*
X0180350Y0005333D01*
X0180350Y0010633D01*
X0180750Y0010633D01*
X0180750Y0005333D01*
X0180983Y0005333D01*
X0181838Y0005469D01*
X0182661Y0005736D01*
X0183433Y0006129D01*
X0184133Y0006638D01*
X0184745Y0007250D01*
X0185254Y0007951D01*
X0185647Y0008722D01*
X0185915Y0009545D01*
X0186050Y0010400D01*
X0186050Y0010633D01*
X0180750Y0010633D01*
X0180750Y0011033D01*
X0186050Y0011033D01*
X0186050Y0011266D01*
X0185915Y0012121D01*
X0185647Y0012945D01*
X0185416Y0013399D01*
X0186020Y0012795D01*
X0187337Y0012249D01*
X0188763Y0012249D01*
X0190080Y0012795D01*
X0190304Y0013018D01*
X0191071Y0012251D01*
X0191476Y0012083D01*
X0191071Y0011916D01*
X0189468Y0010312D01*
X0188600Y0008217D01*
X0188600Y0005950D01*
X0189373Y0004083D01*
X0121555Y0004083D01*
X0122650Y0005178D01*
X0122650Y0008989D01*
X0119955Y0011683D01*
X0116145Y0011683D01*
X0113450Y0008989D01*
X0113450Y0005178D01*
X0114545Y0004083D01*
X0081555Y0004083D01*
X0082650Y0005178D01*
X0082650Y0008989D01*
X0079955Y0011683D01*
X0076145Y0011683D01*
X0073450Y0008989D01*
X0073450Y0005178D01*
X0074545Y0004083D01*
X0036273Y0004083D01*
X0038700Y0006511D01*
X0038700Y0008333D01*
X0034300Y0008333D01*
X0029900Y0008333D01*
X0029900Y0006511D01*
X0032327Y0004083D01*
X0003800Y0004083D01*
X0003800Y0043733D01*
X0007455Y0043733D01*
X0010150Y0046428D01*
X0010150Y0046474D01*
X0010950Y0047274D01*
X0010950Y0046428D01*
X0013645Y0043733D01*
X0017455Y0043733D01*
X0019255Y0045533D01*
X0030595Y0045533D01*
X0032395Y0043733D01*
X0036205Y0043733D01*
X0038900Y0046428D01*
X0038900Y0049283D01*
X0048931Y0049283D01*
X0048761Y0049114D01*
X0048216Y0047796D01*
X0048216Y0046370D01*
X0048761Y0045053D01*
X0049770Y0044045D01*
X0051087Y0043499D01*
X0051424Y0043499D01*
X0059426Y0035497D01*
X0060214Y0034710D01*
X0061243Y0034283D01*
X0076527Y0034283D01*
X0076150Y0033906D01*
X0076150Y0032083D01*
X0076150Y0030261D01*
X0076527Y0029883D01*
X0069069Y0029883D01*
X0068830Y0030122D01*
X0067513Y0030668D01*
X0066087Y0030668D01*
X0064770Y0030122D01*
X0063761Y0029114D01*
X0063216Y0027796D01*
X0063216Y0026370D01*
X0063761Y0025053D01*
X0064770Y0024045D01*
X0066087Y0023499D01*
X0067513Y0023499D01*
X0068830Y0024045D01*
X0069069Y0024283D01*
X0087357Y0024283D01*
X0088386Y0024710D01*
X0091160Y0027483D01*
X0095315Y0027483D01*
X0097006Y0028184D01*
X0098300Y0029478D01*
X0099000Y0031168D01*
X0099000Y0032998D01*
X0098468Y0034283D01*
X0099000Y0032455D02*
X0102468Y0032455D01*
X0103429Y0030857D02*
X0098871Y0030857D01*
X0098080Y0029258D02*
X0104556Y0029258D01*
X0109044Y0029258D02*
X0115520Y0029258D01*
X0114729Y0030857D02*
X0110171Y0030857D01*
X0111132Y0032455D02*
X0114600Y0032455D01*
X0115037Y0034054D02*
X0112730Y0034054D01*
X0117860Y0027660D02*
X0095740Y0027660D01*
X0099110Y0024462D02*
X0087789Y0024462D01*
X0089737Y0026061D02*
X0158344Y0026061D01*
X0158216Y0027660D02*
X0125740Y0027660D01*
X0128080Y0029258D02*
X0158906Y0029258D01*
X0161800Y0027083D02*
X0184300Y0027083D01*
X0194300Y0037083D01*
X0189603Y0040448D02*
X0173044Y0040448D01*
X0174948Y0038849D02*
X0188862Y0038849D01*
X0188600Y0037251D02*
X0175384Y0037251D01*
X0175087Y0035652D02*
X0188723Y0035652D01*
X0187310Y0034054D02*
X0173839Y0034054D01*
X0171131Y0032455D02*
X0185712Y0032455D01*
X0185550Y0034583D02*
X0185550Y0058333D01*
X0181800Y0062083D01*
X0186800Y0067083D01*
X0194300Y0067083D01*
X0194100Y0066883D02*
X0194100Y0061583D01*
X0193867Y0061583D01*
X0193012Y0061719D01*
X0192189Y0061986D01*
X0191417Y0062379D01*
X0190717Y0062888D01*
X0190105Y0063500D01*
X0189596Y0064201D01*
X0189203Y0064972D01*
X0188935Y0065795D01*
X0188800Y0066650D01*
X0188800Y0066883D01*
X0194100Y0066883D01*
X0194100Y0066024D02*
X0194500Y0066024D01*
X0194500Y0064425D02*
X0194100Y0064425D01*
X0194100Y0062827D02*
X0194500Y0062827D01*
X0196650Y0061228D02*
X0154905Y0061228D01*
X0154322Y0059630D02*
X0159278Y0059630D01*
X0158313Y0058031D02*
X0155287Y0058031D01*
X0155384Y0056433D02*
X0157190Y0056433D01*
X0156800Y0052083D02*
X0121800Y0052083D01*
X0127262Y0048440D02*
X0163482Y0048440D01*
X0164686Y0050039D02*
X0158715Y0050039D01*
X0160314Y0051637D02*
X0190793Y0051637D01*
X0196650Y0053236D02*
X0161912Y0053236D01*
X0164620Y0054834D02*
X0196650Y0054834D01*
X0196650Y0056433D02*
X0165384Y0056433D01*
X0165287Y0058031D02*
X0196650Y0058031D01*
X0196650Y0059630D02*
X0164322Y0059630D01*
X0161800Y0057083D02*
X0156800Y0052083D01*
X0151800Y0057083D02*
X0116800Y0057083D01*
X0114600Y0061228D02*
X0111615Y0061228D01*
X0110016Y0062827D02*
X0114600Y0062827D01*
X0111800Y0067083D02*
X0151800Y0067083D01*
X0156800Y0072083D01*
X0171800Y0072083D01*
X0176800Y0077083D01*
X0194300Y0077083D01*
X0190904Y0072418D02*
X0176094Y0072418D01*
X0175156Y0070819D02*
X0190258Y0070819D01*
X0189216Y0069221D02*
X0174006Y0069221D01*
X0169594Y0069221D02*
X0159731Y0069221D01*
X0160384Y0067622D02*
X0188817Y0067622D01*
X0188899Y0066024D02*
X0160241Y0066024D01*
X0159211Y0064425D02*
X0189482Y0064425D01*
X0190802Y0062827D02*
X0156503Y0062827D01*
X0156800Y0067083D02*
X0151800Y0062083D01*
X0121800Y0062083D01*
X0128217Y0069883D02*
X0150640Y0069883D01*
X0154426Y0073669D01*
X0155040Y0074283D01*
X0128217Y0074283D01*
X0128478Y0073772D01*
X0128692Y0073114D01*
X0128800Y0072430D01*
X0128800Y0072083D01*
X0121800Y0072083D01*
X0114800Y0072083D01*
X0121800Y0072083D01*
X0121800Y0072083D01*
X0121800Y0072083D01*
X0128800Y0072083D01*
X0128800Y0071737D01*
X0128692Y0071053D01*
X0128478Y0070394D01*
X0128217Y0069883D01*
X0128616Y0070819D02*
X0151576Y0070819D01*
X0153175Y0072418D02*
X0128800Y0072418D01*
X0128353Y0074016D02*
X0154773Y0074016D01*
X0156200Y0080410D02*
X0163613Y0080410D01*
X0163216Y0082009D02*
X0156200Y0082009D01*
X0156200Y0082083D02*
X0156200Y0083906D01*
X0153623Y0086483D01*
X0151800Y0086483D01*
X0149977Y0086483D01*
X0147400Y0083906D01*
X0147400Y0082083D01*
X0151800Y0082083D01*
X0151800Y0082083D01*
X0151800Y0082083D01*
X0156200Y0082083D01*
X0156200Y0083607D02*
X0163552Y0083607D01*
X0164973Y0085206D02*
X0154900Y0085206D01*
X0151800Y0085206D02*
X0151800Y0085206D01*
X0151800Y0086483D02*
X0151800Y0082083D01*
X0151800Y0082083D01*
X0151800Y0086483D01*
X0148700Y0085206D02*
X0135183Y0085206D01*
X0136148Y0083607D02*
X0147400Y0083607D01*
X0147400Y0082009D02*
X0136400Y0082009D01*
X0136086Y0080410D02*
X0147400Y0080410D01*
X0151800Y0083607D02*
X0151800Y0083607D01*
X0161800Y0092083D02*
X0166800Y0097083D01*
X0194300Y0097083D01*
X0190124Y0093198D02*
X0166875Y0093198D01*
X0165384Y0091600D02*
X0190756Y0091600D01*
X0189339Y0090001D02*
X0164787Y0090001D01*
X0171800Y0087083D02*
X0166800Y0082083D01*
X0171800Y0077083D02*
X0176800Y0082083D01*
X0186800Y0082083D01*
X0189401Y0074016D02*
X0177693Y0074016D01*
X0171800Y0077083D02*
X0116800Y0077083D01*
X0114838Y0074016D02*
X0098578Y0074016D01*
X0099000Y0072418D02*
X0114800Y0072418D01*
X0114984Y0070819D02*
X0098855Y0070819D01*
X0098043Y0069221D02*
X0108869Y0069221D01*
X0108216Y0067622D02*
X0095650Y0067622D01*
X0096907Y0066024D02*
X0108359Y0066024D01*
X0108418Y0064425D02*
X0109389Y0064425D01*
X0106800Y0062083D02*
X0111800Y0057083D01*
X0106892Y0058031D02*
X0096638Y0058031D01*
X0091800Y0062083D02*
X0106800Y0062083D01*
X0091800Y0062083D02*
X0026800Y0062083D01*
X0034300Y0048333D02*
X0015550Y0048333D01*
X0018965Y0045243D02*
X0030885Y0045243D01*
X0037715Y0045243D02*
X0048683Y0045243D01*
X0048216Y0046842D02*
X0038900Y0046842D01*
X0038900Y0048440D02*
X0048482Y0048440D01*
X0050736Y0043645D02*
X0003800Y0043645D01*
X0003800Y0042046D02*
X0052877Y0042046D01*
X0054476Y0040448D02*
X0003800Y0040448D01*
X0003800Y0038849D02*
X0056074Y0038849D01*
X0057673Y0037251D02*
X0003800Y0037251D01*
X0003800Y0035652D02*
X0059271Y0035652D01*
X0063906Y0029258D02*
X0003800Y0029258D01*
X0003800Y0027660D02*
X0063216Y0027660D01*
X0063344Y0026061D02*
X0003800Y0026061D01*
X0003800Y0024462D02*
X0064352Y0024462D01*
X0066800Y0027083D02*
X0086800Y0027083D01*
X0091800Y0032083D01*
X0091800Y0042083D02*
X0080550Y0042083D01*
X0077204Y0045243D02*
X0062600Y0045243D01*
X0076298Y0034054D02*
X0003800Y0034054D01*
X0003800Y0032455D02*
X0076150Y0032455D01*
X0076150Y0032083D02*
X0080550Y0032083D01*
X0076150Y0032083D01*
X0076150Y0030857D02*
X0003800Y0030857D01*
X0003800Y0022864D02*
X0076075Y0022864D01*
X0074477Y0021265D02*
X0003800Y0021265D01*
X0003800Y0019667D02*
X0073450Y0019667D01*
X0073450Y0018068D02*
X0003800Y0018068D01*
X0003800Y0016470D02*
X0073450Y0016470D01*
X0075007Y0014871D02*
X0003800Y0014871D01*
X0003800Y0013273D02*
X0123120Y0013273D01*
X0122615Y0011674D02*
X0119964Y0011674D01*
X0121563Y0010076D02*
X0122601Y0010076D01*
X0122550Y0010400D02*
X0122685Y0009545D01*
X0122953Y0008722D01*
X0123346Y0007951D01*
X0123855Y0007250D01*
X0124467Y0006638D01*
X0125167Y0006129D01*
X0125939Y0005736D01*
X0126762Y0005469D01*
X0127617Y0005333D01*
X0127850Y0005333D01*
X0127850Y0010633D01*
X0122550Y0010633D01*
X0122550Y0010400D01*
X0122650Y0008477D02*
X0123078Y0008477D01*
X0122650Y0006879D02*
X0124226Y0006879D01*
X0122650Y0005280D02*
X0136561Y0005280D01*
X0139539Y0005280D02*
X0146561Y0005280D01*
X0143943Y0006879D02*
X0142157Y0006879D01*
X0149539Y0005280D02*
X0159061Y0005280D01*
X0162039Y0005280D02*
X0169061Y0005280D01*
X0172039Y0005280D02*
X0188877Y0005280D01*
X0188600Y0006879D02*
X0184374Y0006879D01*
X0185522Y0008477D02*
X0188708Y0008477D01*
X0189370Y0010076D02*
X0185999Y0010076D01*
X0185985Y0011674D02*
X0190830Y0011674D01*
X0188050Y0015833D02*
X0185550Y0018333D01*
X0158050Y0018333D01*
X0153050Y0018333D02*
X0160550Y0010833D01*
X0156443Y0006879D02*
X0152157Y0006879D01*
X0153244Y0008477D02*
X0155356Y0008477D01*
X0154850Y0010076D02*
X0153750Y0010076D01*
X0153750Y0011674D02*
X0154850Y0011674D01*
X0154151Y0013273D02*
X0153209Y0013273D01*
X0152552Y0014871D02*
X0152073Y0014871D01*
X0153050Y0018333D02*
X0118050Y0018333D01*
X0115007Y0014871D02*
X0081093Y0014871D01*
X0078050Y0018333D02*
X0098050Y0018333D01*
X0101800Y0022083D01*
X0189300Y0022083D01*
X0194300Y0017083D01*
X0189248Y0024883D02*
X0186060Y0024883D01*
X0186674Y0025497D01*
X0188820Y0027644D01*
X0188800Y0027516D01*
X0188800Y0027283D01*
X0194100Y0027283D01*
X0194100Y0026883D01*
X0188800Y0026883D01*
X0188800Y0026650D01*
X0188935Y0025795D01*
X0189203Y0024972D01*
X0189248Y0024883D01*
X0188893Y0026061D02*
X0187237Y0026061D01*
X0186674Y0025497D02*
X0186674Y0025497D01*
X0184113Y0030857D02*
X0169533Y0030857D01*
X0169174Y0030497D02*
X0169174Y0030497D01*
X0166800Y0032083D02*
X0121800Y0032083D01*
X0113450Y0018068D02*
X0101745Y0018068D01*
X0100146Y0016470D02*
X0113450Y0016470D01*
X0116136Y0011674D02*
X0079964Y0011674D01*
X0081563Y0010076D02*
X0114537Y0010076D01*
X0113450Y0008477D02*
X0082650Y0008477D01*
X0082650Y0006879D02*
X0113450Y0006879D01*
X0113450Y0005280D02*
X0082650Y0005280D01*
X0076136Y0011674D02*
X0037181Y0011674D01*
X0036123Y0012733D02*
X0034300Y0012733D01*
X0032477Y0012733D01*
X0029900Y0010156D01*
X0029900Y0008333D01*
X0034300Y0008333D01*
X0034300Y0008333D01*
X0034300Y0008333D01*
X0038700Y0008333D01*
X0038700Y0010156D01*
X0036123Y0012733D01*
X0034300Y0012733D02*
X0034300Y0008333D01*
X0034300Y0012733D01*
X0034300Y0011674D02*
X0034300Y0011674D01*
X0034300Y0010076D02*
X0034300Y0010076D01*
X0034300Y0008477D02*
X0034300Y0008477D01*
X0034300Y0008333D02*
X0034300Y0008333D01*
X0031130Y0005280D02*
X0003800Y0005280D01*
X0003800Y0006879D02*
X0029900Y0006879D01*
X0029900Y0008477D02*
X0003800Y0008477D01*
X0003800Y0010076D02*
X0029900Y0010076D01*
X0031419Y0011674D02*
X0003800Y0011674D01*
X0008965Y0045243D02*
X0012135Y0045243D01*
X0010950Y0046842D02*
X0010518Y0046842D01*
X0038700Y0010076D02*
X0074537Y0010076D01*
X0073450Y0008477D02*
X0038700Y0008477D01*
X0038700Y0006879D02*
X0073450Y0006879D01*
X0073450Y0005280D02*
X0037470Y0005280D01*
X0080025Y0022864D02*
X0098244Y0022864D01*
X0097022Y0021265D02*
X0081623Y0021265D01*
X0080550Y0032083D02*
X0080550Y0032083D01*
X0076301Y0066024D02*
X0086693Y0066024D01*
X0087949Y0067622D02*
X0077890Y0067622D01*
X0073050Y0070833D02*
X0090550Y0070833D01*
X0091800Y0072083D01*
X0091800Y0082083D02*
X0086800Y0082083D01*
X0078050Y0090833D01*
X0091800Y0091600D02*
X0091800Y0091600D01*
X0091800Y0090001D02*
X0091800Y0090001D01*
X0091800Y0088403D02*
X0091800Y0088403D01*
X0091800Y0102083D02*
X0011800Y0102083D01*
X0006800Y0107083D01*
X0011800Y0112083D02*
X0091800Y0112083D01*
X0076800Y0107083D02*
X0116800Y0107083D01*
X0121800Y0102083D01*
X0127783Y0085206D02*
X0128417Y0085206D01*
X0131800Y0082083D02*
X0121800Y0082083D01*
X0171800Y0037083D02*
X0166800Y0032083D01*
X0185480Y0013273D02*
X0185542Y0013273D01*
X0180750Y0010076D02*
X0180350Y0010076D01*
X0180350Y0008477D02*
X0180750Y0008477D01*
X0180750Y0006879D02*
X0180350Y0006879D01*
X0176726Y0006879D02*
X0174657Y0006879D01*
X0166443Y0006879D02*
X0164657Y0006879D01*
X0133943Y0006879D02*
X0131874Y0006879D01*
X0128250Y0006879D02*
X0127850Y0006879D01*
X0127850Y0008477D02*
X0128250Y0008477D01*
X0128250Y0010076D02*
X0127850Y0010076D01*
X0124310Y0014871D02*
X0121093Y0014871D01*
X0171800Y0087083D02*
X0194300Y0087083D01*
X0194300Y0137083D02*
X0126800Y0137083D01*
X0121800Y0142083D01*
X0127039Y0145949D02*
X0196650Y0145949D01*
X0196650Y0144351D02*
X0128440Y0144351D01*
X0129000Y0142752D02*
X0193091Y0142752D01*
X0190309Y0141154D02*
X0128994Y0141154D01*
X0127686Y0149146D02*
X0133514Y0149146D01*
X0132400Y0150745D02*
X0128592Y0150745D01*
X0128800Y0152343D02*
X0132400Y0152343D01*
X0132436Y0153942D02*
X0128391Y0153942D01*
X0127127Y0155540D02*
X0134035Y0155540D01*
X0133641Y0158737D02*
X0127559Y0158737D01*
X0121800Y0156483D02*
X0121800Y0152083D01*
X0121800Y0156483D01*
X0121800Y0155540D02*
X0121800Y0155540D01*
X0121800Y0153942D02*
X0121800Y0153942D01*
X0121800Y0152343D02*
X0121800Y0152343D01*
X0121800Y0152083D02*
X0121800Y0152083D01*
X0121800Y0150745D02*
X0121800Y0150745D01*
X0121800Y0149146D02*
X0121800Y0149146D01*
X0121800Y0162083D02*
X0136800Y0162083D01*
X0133343Y0165131D02*
X0127857Y0165131D01*
X0136800Y0156483D02*
X0136800Y0152083D01*
X0136800Y0152083D01*
X0136800Y0156483D01*
X0136800Y0155540D02*
X0136800Y0155540D01*
X0136800Y0153942D02*
X0136800Y0153942D01*
X0136800Y0152343D02*
X0136800Y0152343D01*
X0136800Y0150745D02*
X0136800Y0150745D01*
X0136800Y0149146D02*
X0136800Y0149146D01*
X0091800Y0142083D02*
X0021800Y0142083D01*
X0006800Y0127083D01*
X0006800Y0117083D02*
X0011800Y0112083D01*
X0031800Y0147083D02*
X0051800Y0147083D01*
X0054806Y0149146D02*
X0085632Y0149146D01*
X0088129Y0147548D02*
X0055384Y0147548D01*
X0055210Y0145949D02*
X0086561Y0145949D01*
X0060430Y0189109D02*
X0060104Y0189109D01*
X0033606Y0158737D02*
X0024640Y0158737D01*
X0023238Y0157139D02*
X0033216Y0157139D01*
X0033560Y0155540D02*
X0020620Y0155540D01*
X0019699Y0153942D02*
X0003800Y0153942D01*
X0003800Y0184314D02*
X0015400Y0184314D01*
X0012829Y0185912D02*
X0003800Y0185912D01*
X0003800Y0187511D02*
X0011446Y0187511D01*
X0010784Y0189109D02*
X0003800Y0189109D01*
X0003800Y0190708D02*
X0010440Y0190708D01*
X0010440Y0192306D02*
X0003800Y0192306D01*
X0003800Y0193905D02*
X0010828Y0193905D01*
X0011490Y0195503D02*
X0003800Y0195503D01*
X0195509Y0142752D02*
X0196650Y0142752D01*
D19*
X0156800Y0102083D03*
X0161800Y0092083D03*
X0166800Y0082083D03*
X0171800Y0072083D03*
X0156800Y0067083D03*
X0151800Y0057083D03*
X0161800Y0057083D03*
X0166800Y0047083D03*
X0171800Y0037083D03*
X0161800Y0027083D03*
X0158050Y0018333D03*
X0141800Y0037083D03*
X0116800Y0057083D03*
X0111800Y0057083D03*
X0111800Y0067083D03*
X0116800Y0077083D03*
X0081800Y0097083D03*
X0076800Y0107083D03*
X0056800Y0122083D03*
X0051800Y0122083D03*
X0051800Y0147083D03*
X0051800Y0157083D03*
X0041800Y0162083D03*
X0036800Y0157083D03*
X0031800Y0147083D03*
X0053050Y0173333D03*
X0056800Y0179583D03*
X0061800Y0172083D03*
X0066800Y0177083D03*
X0071800Y0182083D03*
X0081800Y0137083D03*
X0111800Y0117083D03*
X0056800Y0072083D03*
X0056800Y0047083D03*
X0051800Y0047083D03*
X0066800Y0027083D03*
X0101800Y0022083D03*
X0106800Y0032083D03*
X0185550Y0034583D03*
X0188050Y0015833D03*
X0186800Y0082083D03*
X0121800Y0177083D03*
X0026800Y0062083D03*
M02*
